<svg width="798" height="742" viewBox="0 0 798 742" fill="none" xmlns="http://www.w3.org/2000/svg">
<rect width="798" height="742" fill="white"/>
<g id="Frame 1">
<g id="phone">
<g id="floor">
<path id="Vector" d="M398.748 741.617C618.97 741.617 797.496 733.558 797.496 723.617C797.496 713.676 618.97 705.617 398.748 705.617C178.526 705.617 0 713.676 0 723.617C0 733.558 178.526 741.617 398.748 741.617Z" fill="#E6E6E6"/>
</g>
<path id="Vector_2" d="M684 172.947H680.001V63.4019C680.001 55.0758 678.361 46.8313 675.175 39.139C671.989 31.4467 667.319 24.4573 661.431 18.5699C655.544 12.6825 648.554 8.01236 640.862 4.82613C633.17 1.63989 624.925 -2.88905e-05 616.599 3.81732e-10H384.513C376.187 -1.96979e-05 367.942 1.6399 360.25 4.82614C352.558 8.01238 345.568 12.6825 339.681 18.5699C333.793 24.4574 329.123 31.4467 325.937 39.139C322.751 46.8313 321.111 55.0758 321.111 63.4019V664.376C321.111 672.702 322.751 680.947 325.937 688.639C329.123 696.331 333.793 703.321 339.681 709.208C345.568 715.096 352.558 719.766 360.25 722.952C367.942 726.138 376.187 727.778 384.513 727.778H616.599C624.925 727.778 633.17 726.138 640.862 722.952C648.554 719.766 655.544 715.096 661.431 709.208C667.319 703.321 671.989 696.331 675.175 688.639C678.361 680.947 680.001 672.702 680.001 664.376V250.923H684V172.947Z" fill="#3F3D56"/>
<path id="Vector_3" d="M619.158 16.495H588.862C590.256 19.9106 590.787 23.6165 590.411 27.286C590.035 30.9556 588.762 34.4763 586.704 37.538C584.646 40.5997 581.867 43.1084 578.612 44.8431C575.356 46.5778 571.724 47.4852 568.035 47.4855H435.076C431.387 47.4852 427.755 46.5778 424.499 44.8431C421.244 43.1084 418.465 40.5997 416.407 37.538C414.35 34.4763 413.077 30.9556 412.7 27.286C412.324 23.6164 412.856 19.9106 414.249 16.4949H385.953C379.735 16.4949 373.578 17.7196 367.834 20.099C362.089 22.4785 356.87 25.9661 352.473 30.3627C348.077 34.7594 344.589 39.979 342.209 45.7235C339.83 51.468 338.605 57.6249 338.605 63.8427V663.935C338.605 670.153 339.83 676.31 342.209 682.054C344.589 687.799 348.077 693.019 352.473 697.415C356.87 701.812 362.089 705.299 367.834 707.679C373.578 710.058 379.735 711.283 385.953 711.283H619.158C625.375 711.283 631.532 710.058 637.277 707.679C643.021 705.299 648.241 701.812 652.638 697.415C657.034 693.019 660.522 687.799 662.901 682.054C665.281 676.31 666.505 670.153 666.505 663.935V63.8427C666.505 57.6249 665.281 51.468 662.901 45.7235C660.522 39.979 657.034 34.7594 652.637 30.3628C648.241 25.9661 643.021 22.4785 637.277 20.0991C631.532 17.7196 625.375 16.495 619.158 16.495V16.495Z" fill="white"/>
</g>
<g id="chat2">
<path id="Vector_4" d="M514.795 668.779C494.187 668.789 474.202 661.715 458.19 648.743C442.177 635.771 431.109 617.69 426.842 597.529C422.574 577.368 425.366 556.353 434.749 538.005C444.132 519.658 459.536 505.093 478.38 496.752C497.224 488.41 518.363 486.8 538.253 492.189C558.143 497.579 575.577 509.641 587.632 526.355C599.687 543.069 605.631 563.418 604.468 583.993C603.304 604.567 595.105 624.117 581.242 639.366L600.008 660.401L590.643 664.374C576.157 670.518 561.981 664.539 554.025 659.767C541.796 665.695 528.384 668.776 514.795 668.779V668.779ZM514.795 503.831C503.335 503.835 492.027 506.458 481.736 511.501C471.445 516.543 462.443 523.872 455.417 532.926C448.392 541.98 443.529 552.521 441.201 563.742C438.873 574.963 439.141 586.568 441.984 597.669C444.828 608.771 450.171 619.076 457.607 627.797C465.042 636.517 474.373 643.423 484.886 647.985C495.398 652.547 506.815 654.646 518.263 654.121C529.711 653.596 540.888 650.461 550.939 644.955L554.947 642.752L558.674 645.405C562.934 648.502 567.77 650.715 572.899 651.912L561.091 638.676L566.267 633.812C573.785 626.808 579.773 618.324 583.854 608.894C587.935 599.464 590.02 589.291 589.979 579.016C589.956 559.083 582.028 539.972 567.933 525.877C553.838 511.782 534.728 503.854 514.795 503.831Z" fill="#E6E6E6"/>
<path id="Vector_5" d="M597.268 579.016C597.261 560.947 591.318 543.382 580.354 529.021C569.39 514.659 554.011 504.298 536.584 499.529C519.156 494.761 500.644 495.85 483.896 502.629C467.148 509.408 453.09 521.502 443.885 537.049C434.681 552.597 430.839 570.739 432.951 588.683C435.062 606.627 443.01 623.381 455.573 636.368C468.135 649.354 484.616 657.854 502.481 660.56C520.345 663.266 538.604 660.028 554.449 651.344C560.15 655.4 574.058 663.491 587.797 657.663L571.258 639.124C579.48 631.421 586.031 622.11 590.505 611.771C594.979 601.431 597.281 590.282 597.268 579.016Z" fill="white"/>
<path id="Vector_6" d="M531.25 562.153H472.318V567.625H531.25V562.153Z" fill="#6C63FF"/>
<path id="Vector_7" d="M575.032 581.085H472.318V586.557H575.032V581.085Z" fill="#E6E6E6"/>
<path id="Vector_8" d="M574.931 600.016H472.318V605.489H574.931V600.016Z" fill="#E6E6E6"/>
</g>
<g id="chat1">
<path id="Vector_9" d="M514.795 269.779C494.187 269.789 474.202 262.715 458.19 249.743C442.177 236.771 431.109 218.69 426.842 198.529C422.574 178.368 425.366 157.353 434.749 139.005C444.132 120.658 459.536 106.093 478.38 97.7518C497.224 89.4104 518.363 87.7995 538.253 93.189C558.143 98.5786 575.577 110.641 587.632 127.355C599.687 144.069 605.631 164.418 604.468 184.993C603.304 205.567 595.105 225.117 581.242 240.366L600.008 261.401L590.643 265.373C576.157 271.518 561.981 265.539 554.025 260.767C541.796 266.695 528.384 269.776 514.795 269.779ZM514.795 104.831C503.335 104.835 492.027 107.458 481.736 112.501C471.445 117.543 462.443 124.872 455.417 133.926C448.392 142.98 443.529 153.521 441.201 164.742C438.873 175.963 439.141 187.568 441.984 198.669C444.828 209.771 450.171 220.076 457.607 228.797C465.042 237.517 474.373 244.422 484.886 248.985C495.398 253.547 506.815 255.646 518.263 255.121C529.711 254.596 540.888 251.461 550.939 245.955L554.947 243.752L558.674 246.405C562.934 249.502 567.77 251.715 572.899 252.912L561.091 239.676L566.267 234.812C573.785 227.808 579.773 219.324 583.854 209.894C587.935 200.464 590.02 190.291 589.979 180.016C589.956 160.082 582.028 140.972 567.933 126.877C553.838 112.782 534.728 104.854 514.795 104.831V104.831Z" fill="#E6E6E6"/>
<path id="Vector_10" d="M597.268 180.016C597.261 161.947 591.318 144.382 580.354 130.021C569.39 115.659 554.011 105.298 536.584 100.529C519.156 95.7611 500.644 96.8502 483.896 103.629C467.148 110.408 453.09 122.502 443.885 138.049C434.681 153.597 430.839 171.739 432.951 189.683C435.062 207.627 443.01 224.381 455.573 237.368C468.135 250.354 484.616 258.854 502.481 261.56C520.345 264.266 538.604 261.028 554.449 252.344C560.15 256.4 574.058 264.491 587.797 258.663L571.258 240.124C579.48 232.421 586.031 223.11 590.505 212.771C594.979 202.431 597.281 191.282 597.268 180.016Z" fill="white"/>
<path id="Vector_11" d="M531.25 163.153H472.318V168.625H531.25V163.153Z" fill="#6C63FF"/>
<path id="Vector_12" d="M575.032 182.085H472.318V187.557H575.032V182.085Z" fill="#E6E6E6"/>
<path id="Vector_13" d="M574.931 201.016H472.318V206.489H574.931V201.016Z" fill="#E6E6E6"/>
</g>
<g id="chatter1">
<path id="Vector_14" d="M629.031 277.446C636.211 277.446 642.031 271.626 642.031 264.446C642.031 257.267 636.211 251.446 629.031 251.446C621.852 251.446 616.031 257.267 616.031 264.446C616.031 271.626 621.852 277.446 629.031 277.446Z" fill="#E6E6E6"/>
</g>
<g id="chatter2">
<path id="Vector_15" d="M629.031 676.446C636.211 676.446 642.031 670.626 642.031 663.446C642.031 656.267 636.211 650.446 629.031 650.446C621.852 650.446 616.031 656.267 616.031 663.446C616.031 670.626 621.852 676.446 629.031 676.446Z" fill="#E6E6E6"/>
</g>
<g id="personChat">
<path id="Vector_16" d="M361.022 458.304C352.757 463.261 338.031 469.472 322.983 463.089L313.255 458.962L332.749 437.111C317.193 419.959 308.588 397.627 308.611 374.472C308.635 351.317 317.286 329.002 332.877 311.883C348.467 294.764 369.878 284.068 392.929 281.885C415.981 279.701 439.019 286.186 457.547 300.074C476.074 313.962 488.762 334.255 493.132 356.994C497.503 379.732 493.244 403.283 481.185 423.05C469.127 442.817 450.135 457.381 427.917 463.9C405.699 470.418 381.849 468.423 361.022 458.304V458.304ZM323.673 374.42C323.63 385.094 325.796 395.661 330.036 405.457C334.275 415.253 340.495 424.066 348.305 431.341L353.682 436.394L341.416 450.144C346.743 448.9 351.768 446.602 356.192 443.384L360.064 440.629L364.228 442.917C379.24 451.148 396.54 454.219 413.468 451.658C430.396 449.097 446.013 441.045 457.918 428.741C469.822 416.436 477.354 400.562 479.356 383.559C481.357 366.556 477.716 349.366 468.994 334.634C460.272 319.902 446.951 308.444 431.08 302.022C415.21 295.6 397.669 294.571 381.157 299.092C364.644 303.612 350.074 313.433 339.688 327.044C329.302 340.654 323.675 357.299 323.673 374.42V374.42Z" fill="#6C63FF"/>
<path id="Vector_17" d="M316.101 374.42C316.109 355.651 322.282 337.404 333.671 322.485C345.061 307.567 361.036 296.804 379.14 291.85C397.243 286.897 416.473 288.028 433.871 295.07C451.269 302.112 465.872 314.675 475.433 330.826C484.995 346.977 488.986 365.822 486.793 384.462C484.599 403.103 476.342 420.506 463.293 433.996C450.243 447.487 433.123 456.316 414.565 459.127C396.008 461.938 377.041 458.574 360.582 449.554C354.66 453.767 340.212 462.172 325.94 456.118L343.12 436.859C334.58 428.857 327.775 419.186 323.127 408.445C318.479 397.704 316.088 386.123 316.101 374.42Z" fill="white"/>
<path id="Vector_18" opacity="0.1" d="M472.303 373.987C472.301 352.577 464.284 331.943 449.828 316.148C435.373 300.354 415.528 290.544 394.202 288.651C396.697 288.433 399.222 288.314 401.774 288.314C424.491 288.322 446.274 297.352 462.335 313.418C478.395 329.484 487.417 351.27 487.417 373.987C487.417 396.704 478.395 418.491 462.335 434.557C446.274 450.622 424.491 459.652 401.774 459.66C399.226 459.66 396.706 459.54 394.214 459.322C415.538 457.426 435.38 447.615 449.832 431.821C464.285 416.028 472.301 395.395 472.303 373.987Z" fill="black"/>
<path id="Vector_19" d="M413.798 356.903H352.58V362.588H413.798V356.903Z" fill="#6C63FF"/>
<path id="Vector_20" d="M459.278 376.569H352.58V382.254H459.278V376.569Z" fill="#6C63FF"/>
<path id="Vector_21" d="M459.174 396.235H352.58V401.92H459.174V396.235Z" fill="#6C63FF"/>
</g>
<g id="person">
<path id="Vector_22" d="M168.77 237.79L162.538 268.954L191.624 290.768L205.128 250.256L168.77 237.79Z" fill="#9F616A"/>
<path id="Vector_23" d="M192.143 266.357C207.633 266.357 220.19 253.8 220.19 238.31C220.19 222.819 207.633 210.262 192.143 210.262C176.653 210.262 164.096 222.819 164.096 238.31C164.096 253.8 176.653 266.357 192.143 266.357Z" fill="#9F616A"/>
<path id="Vector_24" d="M131.374 452.819C131.374 452.819 153.189 557.737 156.305 568.125C159.421 578.513 156.305 579.552 156.305 579.552C156.305 579.552 152.15 582.668 155.266 583.707C158.382 584.746 149.033 589.939 149.033 589.939C149.033 589.939 144.878 609.676 142.801 613.832C140.723 617.987 131.374 643.957 130.335 643.957C129.296 643.957 124.102 659.538 124.102 659.538C124.102 659.538 136.568 679.275 150.072 670.965L155.266 661.616L196.818 600.327C196.818 600.327 214.477 580.59 210.322 556.698L212.399 581.629L216.555 662.655C216.555 662.655 205.128 669.926 213.438 681.353C213.438 681.353 235.253 688.624 244.602 677.198C244.602 677.198 246.679 670.965 243.563 667.849C240.447 664.732 240.447 664.732 242.524 662.655C244.602 660.577 247.718 656.422 247.718 654.344V646.034L252.912 551.504C252.912 551.504 238.369 455.936 226.942 450.742C215.516 445.548 131.374 452.819 131.374 452.819Z" fill="#2F2E41"/>
<path id="Vector_25" d="M214.477 677.198C214.477 677.198 200.973 703.167 212.399 706.284C219.522 708.184 226.845 709.23 234.214 709.4C234.214 709.4 263.3 732.253 274.727 720.827C286.153 709.4 269.533 700.051 269.533 700.051C269.533 700.051 248.757 685.508 247.718 681.353C246.679 677.198 214.477 677.198 214.477 677.198Z" fill="#2F2E41"/>
<path id="Vector_26" d="M124.622 657.98C124.622 657.98 101.285 684.521 111.318 690.815C117.584 694.697 124.29 697.821 131.294 700.119C131.294 700.119 152.509 730.421 166.757 722.796C181.004 715.171 167.806 701.406 167.806 701.406C167.806 701.406 152.136 681.467 152.346 677.189C152.556 672.911 124.622 657.98 124.622 657.98Z" fill="#2F2E41"/>
<path id="Vector_27" d="M232.136 453.858C232.136 453.858 227.981 462.168 211.361 459.052C194.74 455.936 129.296 459.052 129.296 459.052C129.296 459.052 132.932 384.779 124.622 340.111C116.312 295.443 149.033 269.993 149.033 269.993L159.421 259.605C169.809 258.566 191.748 290.809 191.748 290.809C199.383 292.086 211.745 326.42 217.708 356.815C220.544 371.316 223.078 386.804 225.208 401.046C229.529 430.018 232.136 453.858 232.136 453.858Z" fill="#6C63FF"/>
<path id="Vector_28" d="M159.331 220.846C159.331 220.846 154.087 209.309 167.722 204.065C167.722 204.065 179.258 185.187 202.331 197.773C202.331 197.773 218.063 204.065 218.063 220.846C218.063 237.626 223.307 240.772 223.307 240.772C223.307 240.772 215.498 232.761 213.4 226.468C211.303 220.176 194.99 218.748 188.697 225.041C182.404 231.333 166.673 230.285 166.673 230.285L167.722 253.358C167.722 253.358 162.478 239.724 160.38 239.724C158.283 239.724 156.185 220.846 159.331 220.846Z" fill="#2F2E41"/>
<path id="Vector_29" opacity="0.2" d="M225.208 401.046C201.056 388.903 156.835 356.763 143.123 339.841C126.055 318.795 144.67 302.787 144.67 302.787C165.779 289.47 191.021 335.166 191.021 335.166L217.708 356.815C220.544 371.316 223.078 386.804 225.208 401.046Z" fill="black"/>
<path id="Vector_30" d="M294.964 383.308C294.964 383.308 331.804 398.263 337.868 381.451C343.931 364.639 308.782 364.928 308.782 364.928L294.983 366.883L294.964 383.308Z" fill="#9F616A"/>
<path id="Vector_31" d="M139.949 295.949C139.949 295.949 121.338 311.958 138.396 333.001C155.454 354.044 219.722 398.661 233.847 399.006C247.972 399.35 284.91 385.202 284.91 385.202L299.361 387.846L302.086 360.715L280.797 362.793L220.756 356.287L186.296 328.326C186.296 328.326 161.053 282.636 139.949 295.949Z" fill="#6C63FF"/>
<path id="Vector_32" opacity="0.2" d="M207.748 488.809L211.004 564.889L202.748 488.809H207.748Z" fill="black"/>
</g>
</g>
</svg>
