<svg width="886" height="665" viewBox="0 0 886 665" fill="none" xmlns="http://www.w3.org/2000/svg">
<rect width="886" height="665" fill="white"/>
<g id="Frame 1">
<path id="Vector" d="M42.9079 15.4156C47.1646 15.4156 50.6153 11.9648 50.6153 7.70817C50.6153 3.4515 47.1646 0.000793457 42.9079 0.000793457C38.6513 0.000793457 35.2006 3.4515 35.2006 7.70817C35.2006 11.9648 38.6513 15.4156 42.9079 15.4156Z" fill="#E6E6E6"/>
<path id="Vector_2" d="M81.9226 15.4156C86.1793 15.4156 89.63 11.9648 89.63 7.70817C89.63 3.4515 86.1793 0.000793457 81.9226 0.000793457C77.6659 0.000793457 74.2152 3.4515 74.2152 7.70817C74.2152 11.9648 77.6659 15.4156 81.9226 15.4156Z" fill="#E6E6E6"/>
<path id="Vector_3" d="M120.937 15.4156C125.194 15.4156 128.645 11.9648 128.645 7.70817C128.645 3.4515 125.194 0.000793457 120.937 0.000793457C116.681 0.000793457 113.23 3.4515 113.23 7.70817C113.23 11.9648 116.681 15.4156 120.937 15.4156Z" fill="#E6E6E6"/>
<path id="Vector_4" d="M159.952 15.4156C164.209 15.4156 167.659 11.9648 167.659 7.70817C167.659 3.4515 164.209 0.000793457 159.952 0.000793457C155.695 0.000793457 152.245 3.4515 152.245 7.70817C152.245 11.9648 155.695 15.4156 159.952 15.4156Z" fill="#E6E6E6"/>
<path id="Vector_5" d="M198.967 15.4156C203.223 15.4156 206.674 11.9648 206.674 7.70817C206.674 3.4515 203.223 0.000793457 198.967 0.000793457C194.71 0.000793457 191.259 3.4515 191.259 7.70817C191.259 11.9648 194.71 15.4156 198.967 15.4156Z" fill="#E6E6E6"/>
<path id="Vector_6" d="M237.981 15.4156C242.238 15.4156 245.689 11.9648 245.689 7.70817C245.689 3.4515 242.238 0.000793457 237.981 0.000793457C233.724 0.000793457 230.274 3.4515 230.274 7.70817C230.274 11.9648 233.724 15.4156 237.981 15.4156Z" fill="#E6E6E6"/>
<path id="Vector_7" d="M276.996 15.4156C281.252 15.4156 284.703 11.9648 284.703 7.70817C284.703 3.4515 281.252 0.000793457 276.996 0.000793457C272.739 0.000793457 269.288 3.4515 269.288 7.70817C269.288 11.9648 272.739 15.4156 276.996 15.4156Z" fill="#E6E6E6"/>
<path id="Vector_8" d="M316.01 15.4156C320.267 15.4156 323.718 11.9648 323.718 7.70817C323.718 3.4515 320.267 0.000793457 316.01 0.000793457C311.754 0.000793457 308.303 3.4515 308.303 7.70817C308.303 11.9648 311.754 15.4156 316.01 15.4156Z" fill="#E6E6E6"/>
<path id="Vector_9" d="M355.025 15.4156C359.282 15.4156 362.732 11.9648 362.732 7.70817C362.732 3.4515 359.282 0.000793457 355.025 0.000793457C350.768 0.000793457 347.318 3.4515 347.318 7.70817C347.318 11.9648 350.768 15.4156 355.025 15.4156Z" fill="#E6E6E6"/>
<path id="Vector_10" d="M394.04 15.4156C398.296 15.4156 401.747 11.9648 401.747 7.70817C401.747 3.4515 398.296 0.000793457 394.04 0.000793457C389.783 0.000793457 386.332 3.4515 386.332 7.70817C386.332 11.9648 389.783 15.4156 394.04 15.4156Z" fill="#E6E6E6"/>
<path id="Vector_11" d="M42.9079 54.9199C47.1646 54.9199 50.6153 51.4692 50.6153 47.2125C50.6153 42.9558 47.1646 39.5051 42.9079 39.5051C38.6513 39.5051 35.2006 42.9558 35.2006 47.2125C35.2006 51.4692 38.6513 54.9199 42.9079 54.9199Z" fill="#E6E6E6"/>
<path id="Vector_12" d="M81.9226 54.9199C86.1793 54.9199 89.63 51.4692 89.63 47.2125C89.63 42.9558 86.1793 39.5051 81.9226 39.5051C77.6659 39.5051 74.2152 42.9558 74.2152 47.2125C74.2152 51.4692 77.6659 54.9199 81.9226 54.9199Z" fill="#E6E6E6"/>
<path id="Vector_13" d="M120.937 54.9199C125.194 54.9199 128.645 51.4692 128.645 47.2125C128.645 42.9558 125.194 39.5051 120.937 39.5051C116.681 39.5051 113.23 42.9558 113.23 47.2125C113.23 51.4692 116.681 54.9199 120.937 54.9199Z" fill="#E6E6E6"/>
<path id="Vector_14" d="M198.967 54.9199C203.223 54.9199 206.674 51.4692 206.674 47.2125C206.674 42.9558 203.223 39.5051 198.967 39.5051C194.71 39.5051 191.259 42.9558 191.259 47.2125C191.259 51.4692 194.71 54.9199 198.967 54.9199Z" fill="#E6E6E6"/>
<path id="Vector_15" d="M237.981 54.9199C242.238 54.9199 245.689 51.4692 245.689 47.2125C245.689 42.9558 242.238 39.5051 237.981 39.5051C233.724 39.5051 230.274 42.9558 230.274 47.2125C230.274 51.4692 233.724 54.9199 237.981 54.9199Z" fill="#E6E6E6"/>
<path id="Vector_16" d="M276.996 54.9199C281.252 54.9199 284.703 51.4692 284.703 47.2125C284.703 42.9558 281.252 39.5051 276.996 39.5051C272.739 39.5051 269.288 42.9558 269.288 47.2125C269.288 51.4692 272.739 54.9199 276.996 54.9199Z" fill="#E6E6E6"/>
<path id="Vector_17" d="M316.01 54.9199C320.267 54.9199 323.718 51.4692 323.718 47.2125C323.718 42.9558 320.267 39.5051 316.01 39.5051C311.754 39.5051 308.303 42.9558 308.303 47.2125C308.303 51.4692 311.754 54.9199 316.01 54.9199Z" fill="#E6E6E6"/>
<path id="Vector_18" d="M355.025 54.9199C359.282 54.9199 362.732 51.4692 362.732 47.2125C362.732 42.9558 359.282 39.5051 355.025 39.5051C350.768 39.5051 347.318 42.9558 347.318 47.2125C347.318 51.4692 350.768 54.9199 355.025 54.9199Z" fill="#E6E6E6"/>
<path id="Vector_19" d="M394.04 54.9199C398.296 54.9199 401.747 51.4692 401.747 47.2125C401.747 42.9558 398.296 39.5051 394.04 39.5051C389.783 39.5051 386.332 42.9558 386.332 47.2125C386.332 51.4692 389.783 54.9199 394.04 54.9199Z" fill="#E6E6E6"/>
<path id="Vector_20" d="M42.9079 94.4242C47.1646 94.4242 50.6153 90.9735 50.6153 86.7169C50.6153 82.4602 47.1646 79.0095 42.9079 79.0095C38.6513 79.0095 35.2006 82.4602 35.2006 86.7169C35.2006 90.9735 38.6513 94.4242 42.9079 94.4242Z" fill="#E6E6E6"/>
<path id="Vector_21" d="M81.9226 94.4242C86.1793 94.4242 89.63 90.9735 89.63 86.7169C89.63 82.4602 86.1793 79.0095 81.9226 79.0095C77.6659 79.0095 74.2152 82.4602 74.2152 86.7169C74.2152 90.9735 77.6659 94.4242 81.9226 94.4242Z" fill="#E6E6E6"/>
<path id="Vector_22" d="M120.937 94.4242C125.194 94.4242 128.645 90.9735 128.645 86.7169C128.645 82.4602 125.194 79.0095 120.937 79.0095C116.681 79.0095 113.23 82.4602 113.23 86.7169C113.23 90.9735 116.681 94.4242 120.937 94.4242Z" fill="#E6E6E6"/>
<path id="Vector_23" d="M159.952 94.4242C164.209 94.4242 167.659 90.9735 167.659 86.7169C167.659 82.4602 164.209 79.0095 159.952 79.0095C155.695 79.0095 152.245 82.4602 152.245 86.7169C152.245 90.9735 155.695 94.4242 159.952 94.4242Z" fill="#E6E6E6"/>
<path id="Vector_24" d="M198.967 94.4242C203.223 94.4242 206.674 90.9735 206.674 86.7169C206.674 82.4602 203.223 79.0095 198.967 79.0095C194.71 79.0095 191.259 82.4602 191.259 86.7169C191.259 90.9735 194.71 94.4242 198.967 94.4242Z" fill="#E6E6E6"/>
<path id="Vector_25" d="M237.981 94.4242C242.238 94.4242 245.689 90.9735 245.689 86.7169C245.689 82.4602 242.238 79.0095 237.981 79.0095C233.724 79.0095 230.274 82.4602 230.274 86.7169C230.274 90.9735 233.724 94.4242 237.981 94.4242Z" fill="#E6E6E6"/>
<path id="Vector_26" d="M276.996 94.4242C281.252 94.4242 284.703 90.9735 284.703 86.7169C284.703 82.4602 281.252 79.0095 276.996 79.0095C272.739 79.0095 269.288 82.4602 269.288 86.7169C269.288 90.9735 272.739 94.4242 276.996 94.4242Z" fill="#E6E6E6"/>
<path id="Vector_27" d="M316.01 94.4242C320.267 94.4242 323.718 90.9735 323.718 86.7169C323.718 82.4602 320.267 79.0095 316.01 79.0095C311.754 79.0095 308.303 82.4602 308.303 86.7169C308.303 90.9735 311.754 94.4242 316.01 94.4242Z" fill="#E6E6E6"/>
<path id="Vector_28" d="M355.025 94.4242C359.282 94.4242 362.732 90.9735 362.732 86.7169C362.732 82.4602 359.282 79.0095 355.025 79.0095C350.768 79.0095 347.318 82.4602 347.318 86.7169C347.318 90.9735 350.768 94.4242 355.025 94.4242Z" fill="#E6E6E6"/>
<path id="Vector_29" d="M394.04 94.4242C398.296 94.4242 401.747 90.9735 401.747 86.7169C401.747 82.4602 398.296 79.0095 394.04 79.0095C389.783 79.0095 386.332 82.4602 386.332 86.7169C386.332 90.9735 389.783 94.4242 394.04 94.4242Z" fill="#E6E6E6"/>
<path id="Vector_30" d="M42.9079 133.929C47.1646 133.929 50.6153 130.478 50.6153 126.221C50.6153 121.965 47.1646 118.514 42.9079 118.514C38.6513 118.514 35.2006 121.965 35.2006 126.221C35.2006 130.478 38.6513 133.929 42.9079 133.929Z" fill="#E6E6E6"/>
<path id="Vector_31" d="M81.9226 133.929C86.1793 133.929 89.63 130.478 89.63 126.221C89.63 121.965 86.1793 118.514 81.9226 118.514C77.6659 118.514 74.2152 121.965 74.2152 126.221C74.2152 130.478 77.6659 133.929 81.9226 133.929Z" fill="#E6E6E6"/>
<path id="Vector_32" d="M120.937 133.929C125.194 133.929 128.645 130.478 128.645 126.221C128.645 121.965 125.194 118.514 120.937 118.514C116.681 118.514 113.23 121.965 113.23 126.221C113.23 130.478 116.681 133.929 120.937 133.929Z" fill="#E6E6E6"/>
<path id="Vector_33" d="M159.952 133.929C164.209 133.929 167.659 130.478 167.659 126.221C167.659 121.965 164.209 118.514 159.952 118.514C155.695 118.514 152.245 121.965 152.245 126.221C152.245 130.478 155.695 133.929 159.952 133.929Z" fill="#E6E6E6"/>
<path id="Vector_34" d="M198.967 133.929C203.223 133.929 206.674 130.478 206.674 126.221C206.674 121.965 203.223 118.514 198.967 118.514C194.71 118.514 191.259 121.965 191.259 126.221C191.259 130.478 194.71 133.929 198.967 133.929Z" fill="#E6E6E6"/>
<path id="Vector_35" d="M237.981 133.929C242.238 133.929 245.689 130.478 245.689 126.221C245.689 121.965 242.238 118.514 237.981 118.514C233.724 118.514 230.274 121.965 230.274 126.221C230.274 130.478 233.724 133.929 237.981 133.929Z" fill="#E6E6E6"/>
<path id="Vector_36" d="M276.996 133.929C281.252 133.929 284.703 130.478 284.703 126.221C284.703 121.965 281.252 118.514 276.996 118.514C272.739 118.514 269.288 121.965 269.288 126.221C269.288 130.478 272.739 133.929 276.996 133.929Z" fill="#E6E6E6"/>
<path id="Vector_37" d="M316.01 133.929C320.267 133.929 323.718 130.478 323.718 126.221C323.718 121.965 320.267 118.514 316.01 118.514C311.754 118.514 308.303 121.965 308.303 126.221C308.303 130.478 311.754 133.929 316.01 133.929Z" fill="#E6E6E6"/>
<path id="Vector_38" d="M355.025 133.929C359.282 133.929 362.732 130.478 362.732 126.221C362.732 121.965 359.282 118.514 355.025 118.514C350.768 118.514 347.318 121.965 347.318 126.221C347.318 130.478 350.768 133.929 355.025 133.929Z" fill="#E6E6E6"/>
<path id="Vector_39" d="M394.04 133.929C398.296 133.929 401.747 130.478 401.747 126.221C401.747 121.965 398.296 118.514 394.04 118.514C389.783 118.514 386.332 121.965 386.332 126.221C386.332 130.478 389.783 133.929 394.04 133.929Z" fill="#E6E6E6"/>
<path id="Vector_40" d="M42.9079 173.433C47.1646 173.433 50.6153 169.982 50.6153 165.726C50.6153 161.469 47.1646 158.018 42.9079 158.018C38.6513 158.018 35.2006 161.469 35.2006 165.726C35.2006 169.982 38.6513 173.433 42.9079 173.433Z" fill="#E6E6E6"/>
<g id="dots">
<path id="Vector_41" d="M81.9226 173.433C86.1793 173.433 89.63 169.982 89.63 165.726C89.63 161.469 86.1793 158.018 81.9226 158.018C77.6659 158.018 74.2152 161.469 74.2152 165.726C74.2152 169.982 77.6659 173.433 81.9226 173.433Z" fill="#6C63FF"/>
<path id="Vector_42" d="M120.937 252.442C125.194 252.442 128.645 248.991 128.645 244.734C128.645 240.478 125.194 237.027 120.937 237.027C116.681 237.027 113.23 240.478 113.23 244.734C113.23 248.991 116.681 252.442 120.937 252.442Z" fill="#6C63FF"/>
<path id="Vector_43" d="M159.952 54.9199C164.209 54.9199 167.659 51.4692 167.659 47.2125C167.659 42.9558 164.209 39.5051 159.952 39.5051C155.695 39.5051 152.245 42.9558 152.245 47.2125C152.245 51.4692 155.695 54.9199 159.952 54.9199Z" fill="#6C63FF"/>
</g>
<path id="Vector_44" d="M120.937 173.433C125.194 173.433 128.645 169.982 128.645 165.726C128.645 161.469 125.194 158.018 120.937 158.018C116.681 158.018 113.23 161.469 113.23 165.726C113.23 169.982 116.681 173.433 120.937 173.433Z" fill="#E6E6E6"/>
<path id="Vector_45" d="M159.952 173.433C164.209 173.433 167.659 169.982 167.659 165.726C167.659 161.469 164.209 158.018 159.952 158.018C155.695 158.018 152.245 161.469 152.245 165.726C152.245 169.982 155.695 173.433 159.952 173.433Z" fill="#E6E6E6"/>
<path id="Vector_46" d="M198.967 173.433C203.223 173.433 206.674 169.982 206.674 165.726C206.674 161.469 203.223 158.018 198.967 158.018C194.71 158.018 191.259 161.469 191.259 165.726C191.259 169.982 194.71 173.433 198.967 173.433Z" fill="#E6E6E6"/>
<path id="Vector_47" d="M237.981 173.433C242.238 173.433 245.689 169.982 245.689 165.726C245.689 161.469 242.238 158.018 237.981 158.018C233.724 158.018 230.274 161.469 230.274 165.726C230.274 169.982 233.724 173.433 237.981 173.433Z" fill="#E6E6E6"/>
<path id="Vector_48" d="M276.996 173.433C281.252 173.433 284.703 169.982 284.703 165.726C284.703 161.469 281.252 158.018 276.996 158.018C272.739 158.018 269.288 161.469 269.288 165.726C269.288 169.982 272.739 173.433 276.996 173.433Z" fill="#E6E6E6"/>
<path id="Vector_49" d="M316.01 173.433C320.267 173.433 323.718 169.982 323.718 165.726C323.718 161.469 320.267 158.018 316.01 158.018C311.754 158.018 308.303 161.469 308.303 165.726C308.303 169.982 311.754 173.433 316.01 173.433Z" fill="#E6E6E6"/>
<path id="Vector_50" d="M355.025 173.433C359.282 173.433 362.732 169.982 362.732 165.726C362.732 161.469 359.282 158.018 355.025 158.018C350.768 158.018 347.318 161.469 347.318 165.726C347.318 169.982 350.768 173.433 355.025 173.433Z" fill="#E6E6E6"/>
<path id="Vector_51" d="M394.04 173.433C398.296 173.433 401.747 169.982 401.747 165.726C401.747 161.469 398.296 158.018 394.04 158.018C389.783 158.018 386.332 161.469 386.332 165.726C386.332 169.982 389.783 173.433 394.04 173.433Z" fill="#E6E6E6"/>
<path id="Vector_52" d="M42.9079 212.937C47.1646 212.937 50.6153 209.487 50.6153 205.23C50.6153 200.973 47.1646 197.523 42.9079 197.523C38.6513 197.523 35.2006 200.973 35.2006 205.23C35.2006 209.487 38.6513 212.937 42.9079 212.937Z" fill="#E6E6E6"/>
<path id="Vector_53" d="M81.9226 212.937C86.1793 212.937 89.63 209.487 89.63 205.23C89.63 200.973 86.1793 197.523 81.9226 197.523C77.6659 197.523 74.2152 200.973 74.2152 205.23C74.2152 209.487 77.6659 212.937 81.9226 212.937Z" fill="#E6E6E6"/>
<path id="Vector_54" d="M120.937 212.937C125.194 212.937 128.645 209.487 128.645 205.23C128.645 200.973 125.194 197.523 120.937 197.523C116.681 197.523 113.23 200.973 113.23 205.23C113.23 209.487 116.681 212.937 120.937 212.937Z" fill="#E6E6E6"/>
<path id="Vector_55" d="M159.952 212.937C164.209 212.937 167.659 209.487 167.659 205.23C167.659 200.973 164.209 197.523 159.952 197.523C155.695 197.523 152.245 200.973 152.245 205.23C152.245 209.487 155.695 212.937 159.952 212.937Z" fill="#E6E6E6"/>
<path id="Vector_56" d="M198.967 212.937C203.223 212.937 206.674 209.487 206.674 205.23C206.674 200.973 203.223 197.523 198.967 197.523C194.71 197.523 191.259 200.973 191.259 205.23C191.259 209.487 194.71 212.937 198.967 212.937Z" fill="#E6E6E6"/>
<path id="Vector_57" d="M237.981 212.937C242.238 212.937 245.689 209.487 245.689 205.23C245.689 200.973 242.238 197.523 237.981 197.523C233.724 197.523 230.274 200.973 230.274 205.23C230.274 209.487 233.724 212.937 237.981 212.937Z" fill="#E6E6E6"/>
<path id="Vector_58" d="M276.996 212.937C281.252 212.937 284.703 209.487 284.703 205.23C284.703 200.973 281.252 197.523 276.996 197.523C272.739 197.523 269.288 200.973 269.288 205.23C269.288 209.487 272.739 212.937 276.996 212.937Z" fill="#E6E6E6"/>
<path id="Vector_59" d="M316.01 212.937C320.267 212.937 323.718 209.487 323.718 205.23C323.718 200.973 320.267 197.523 316.01 197.523C311.754 197.523 308.303 200.973 308.303 205.23C308.303 209.487 311.754 212.937 316.01 212.937Z" fill="#E6E6E6"/>
<path id="Vector_60" d="M355.025 212.937C359.282 212.937 362.732 209.487 362.732 205.23C362.732 200.973 359.282 197.523 355.025 197.523C350.768 197.523 347.318 200.973 347.318 205.23C347.318 209.487 350.768 212.937 355.025 212.937Z" fill="#E6E6E6"/>
<path id="Vector_61" d="M394.04 212.937C398.296 212.937 401.747 209.487 401.747 205.23C401.747 200.973 398.296 197.523 394.04 197.523C389.783 197.523 386.332 200.973 386.332 205.23C386.332 209.487 389.783 212.937 394.04 212.937Z" fill="#E6E6E6"/>
<path id="Vector_62" d="M42.9079 252.442C47.1646 252.442 50.6153 248.991 50.6153 244.734C50.6153 240.478 47.1646 237.027 42.9079 237.027C38.6513 237.027 35.2006 240.478 35.2006 244.734C35.2006 248.991 38.6513 252.442 42.9079 252.442Z" fill="#E6E6E6"/>
<path id="Vector_63" d="M81.9226 252.442C86.1793 252.442 89.63 248.991 89.63 244.734C89.63 240.478 86.1793 237.027 81.9226 237.027C77.6659 237.027 74.2152 240.478 74.2152 244.734C74.2152 248.991 77.6659 252.442 81.9226 252.442Z" fill="#E6E6E6"/>
<path id="Vector_64" d="M159.952 252.442C164.209 252.442 167.659 248.991 167.659 244.734C167.659 240.478 164.209 237.027 159.952 237.027C155.695 237.027 152.245 240.478 152.245 244.734C152.245 248.991 155.695 252.442 159.952 252.442Z" fill="#E6E6E6"/>
<path id="Vector_65" d="M198.967 252.442C203.223 252.442 206.674 248.991 206.674 244.734C206.674 240.478 203.223 237.027 198.967 237.027C194.71 237.027 191.259 240.478 191.259 244.734C191.259 248.991 194.71 252.442 198.967 252.442Z" fill="#E6E6E6"/>
<path id="Vector_66" d="M237.981 252.442C242.238 252.442 245.689 248.991 245.689 244.734C245.689 240.478 242.238 237.027 237.981 237.027C233.724 237.027 230.274 240.478 230.274 244.734C230.274 248.991 233.724 252.442 237.981 252.442Z" fill="#E6E6E6"/>
<path id="Vector_67" d="M276.996 252.442C281.252 252.442 284.703 248.991 284.703 244.734C284.703 240.478 281.252 237.027 276.996 237.027C272.739 237.027 269.288 240.478 269.288 244.734C269.288 248.991 272.739 252.442 276.996 252.442Z" fill="#E6E6E6"/>
<path id="Vector_68" d="M316.01 252.442C320.267 252.442 323.718 248.991 323.718 244.734C323.718 240.478 320.267 237.027 316.01 237.027C311.754 237.027 308.303 240.478 308.303 244.734C308.303 248.991 311.754 252.442 316.01 252.442Z" fill="#E6E6E6"/>
<path id="Vector_69" d="M355.025 252.442C359.282 252.442 362.732 248.991 362.732 244.734C362.732 240.478 359.282 237.027 355.025 237.027C350.768 237.027 347.318 240.478 347.318 244.734C347.318 248.991 350.768 252.442 355.025 252.442Z" fill="#E6E6E6"/>
<path id="Vector_70" d="M394.04 252.442C398.296 252.442 401.747 248.991 401.747 244.734C401.747 240.478 398.296 237.027 394.04 237.027C389.783 237.027 386.332 240.478 386.332 244.734C386.332 248.991 389.783 252.442 394.04 252.442Z" fill="#E6E6E6"/>
<path id="Vector_71" d="M42.9079 291.946C47.1646 291.946 50.6153 288.495 50.6153 284.239C50.6153 279.982 47.1646 276.531 42.9079 276.531C38.6513 276.531 35.2006 279.982 35.2006 284.239C35.2006 288.495 38.6513 291.946 42.9079 291.946Z" fill="#E6E6E6"/>
<path id="Vector_72" d="M81.9226 291.946C86.1793 291.946 89.63 288.495 89.63 284.239C89.63 279.982 86.1793 276.531 81.9226 276.531C77.6659 276.531 74.2152 279.982 74.2152 284.239C74.2152 288.495 77.6659 291.946 81.9226 291.946Z" fill="#E6E6E6"/>
<path id="Vector_73" d="M120.937 291.946C125.194 291.946 128.645 288.495 128.645 284.239C128.645 279.982 125.194 276.531 120.937 276.531C116.681 276.531 113.23 279.982 113.23 284.239C113.23 288.495 116.681 291.946 120.937 291.946Z" fill="#E6E6E6"/>
<path id="Vector_74" d="M159.952 291.946C164.209 291.946 167.659 288.495 167.659 284.239C167.659 279.982 164.209 276.531 159.952 276.531C155.695 276.531 152.245 279.982 152.245 284.239C152.245 288.495 155.695 291.946 159.952 291.946Z" fill="#E6E6E6"/>
<path id="Vector_75" d="M198.967 291.946C203.223 291.946 206.674 288.495 206.674 284.239C206.674 279.982 203.223 276.531 198.967 276.531C194.71 276.531 191.259 279.982 191.259 284.239C191.259 288.495 194.71 291.946 198.967 291.946Z" fill="#E6E6E6"/>
<path id="Vector_76" d="M237.981 291.946C242.238 291.946 245.689 288.495 245.689 284.239C245.689 279.982 242.238 276.531 237.981 276.531C233.724 276.531 230.274 279.982 230.274 284.239C230.274 288.495 233.724 291.946 237.981 291.946Z" fill="#E6E6E6"/>
<path id="Vector_77" d="M276.996 291.946C281.252 291.946 284.703 288.495 284.703 284.239C284.703 279.982 281.252 276.531 276.996 276.531C272.739 276.531 269.288 279.982 269.288 284.239C269.288 288.495 272.739 291.946 276.996 291.946Z" fill="#E6E6E6"/>
<path id="Vector_78" d="M316.01 291.946C320.267 291.946 323.718 288.495 323.718 284.239C323.718 279.982 320.267 276.531 316.01 276.531C311.754 276.531 308.303 279.982 308.303 284.239C308.303 288.495 311.754 291.946 316.01 291.946Z" fill="#E6E6E6"/>
<path id="Vector_79" d="M355.025 291.946C359.282 291.946 362.732 288.495 362.732 284.239C362.732 279.982 359.282 276.531 355.025 276.531C350.768 276.531 347.318 279.982 347.318 284.239C347.318 288.495 350.768 291.946 355.025 291.946Z" fill="#E6E6E6"/>
<path id="Vector_80" d="M394.04 291.946C398.296 291.946 401.747 288.495 401.747 284.239C401.747 279.982 398.296 276.531 394.04 276.531C389.783 276.531 386.332 279.982 386.332 284.239C386.332 288.495 389.783 291.946 394.04 291.946Z" fill="#E6E6E6"/>
<path id="Vector_81" d="M42.9079 331.45C47.1646 331.45 50.6153 328 50.6153 323.743C50.6153 319.486 47.1646 316.036 42.9079 316.036C38.6513 316.036 35.2006 319.486 35.2006 323.743C35.2006 328 38.6513 331.45 42.9079 331.45Z" fill="#E6E6E6"/>
<path id="Vector_82" d="M81.9226 331.45C86.1793 331.45 89.63 328 89.63 323.743C89.63 319.486 86.1793 316.036 81.9226 316.036C77.6659 316.036 74.2152 319.486 74.2152 323.743C74.2152 328 77.6659 331.45 81.9226 331.45Z" fill="#E6E6E6"/>
<path id="Vector_83" d="M120.937 331.45C125.194 331.45 128.645 328 128.645 323.743C128.645 319.486 125.194 316.036 120.937 316.036C116.681 316.036 113.23 319.486 113.23 323.743C113.23 328 116.681 331.45 120.937 331.45Z" fill="#E6E6E6"/>
<path id="Vector_84" d="M159.952 331.45C164.209 331.45 167.659 328 167.659 323.743C167.659 319.486 164.209 316.036 159.952 316.036C155.695 316.036 152.245 319.486 152.245 323.743C152.245 328 155.695 331.45 159.952 331.45Z" fill="#E6E6E6"/>
<path id="Vector_85" d="M198.967 331.45C203.223 331.45 206.674 328 206.674 323.743C206.674 319.486 203.223 316.036 198.967 316.036C194.71 316.036 191.259 319.486 191.259 323.743C191.259 328 194.71 331.45 198.967 331.45Z" fill="#E6E6E6"/>
<path id="Vector_86" d="M237.981 331.45C242.238 331.45 245.689 328 245.689 323.743C245.689 319.486 242.238 316.036 237.981 316.036C233.724 316.036 230.274 319.486 230.274 323.743C230.274 328 233.724 331.45 237.981 331.45Z" fill="#E6E6E6"/>
<path id="Vector_87" d="M276.996 331.45C281.252 331.45 284.703 328 284.703 323.743C284.703 319.486 281.252 316.036 276.996 316.036C272.739 316.036 269.288 319.486 269.288 323.743C269.288 328 272.739 331.45 276.996 331.45Z" fill="#E6E6E6"/>
<path id="Vector_88" d="M316.01 331.45C320.267 331.45 323.718 328 323.718 323.743C323.718 319.486 320.267 316.036 316.01 316.036C311.754 316.036 308.303 319.486 308.303 323.743C308.303 328 311.754 331.45 316.01 331.45Z" fill="#E6E6E6"/>
<path id="Vector_89" d="M355.025 331.45C359.282 331.45 362.732 328 362.732 323.743C362.732 319.486 359.282 316.036 355.025 316.036C350.768 316.036 347.318 319.486 347.318 323.743C347.318 328 350.768 331.45 355.025 331.45Z" fill="#E6E6E6"/>
<path id="Vector_90" d="M394.04 331.45C398.296 331.45 401.747 328 401.747 323.743C401.747 319.486 398.296 316.036 394.04 316.036C389.783 316.036 386.332 319.486 386.332 323.743C386.332 328 389.783 331.45 394.04 331.45Z" fill="#E6E6E6"/>
<path id="Vector_91" d="M42.9079 370.955C47.1646 370.955 50.6153 367.504 50.6153 363.247C50.6153 358.991 47.1646 355.54 42.9079 355.54C38.6513 355.54 35.2006 358.991 35.2006 363.247C35.2006 367.504 38.6513 370.955 42.9079 370.955Z" fill="#E6E6E6"/>
<path id="Vector_92" d="M81.9226 370.955C86.1793 370.955 89.63 367.504 89.63 363.247C89.63 358.991 86.1793 355.54 81.9226 355.54C77.6659 355.54 74.2152 358.991 74.2152 363.247C74.2152 367.504 77.6659 370.955 81.9226 370.955Z" fill="#E6E6E6"/>
<path id="Vector_93" d="M120.937 370.955C125.194 370.955 128.645 367.504 128.645 363.247C128.645 358.991 125.194 355.54 120.937 355.54C116.681 355.54 113.23 358.991 113.23 363.247C113.23 367.504 116.681 370.955 120.937 370.955Z" fill="#E6E6E6"/>
<path id="Vector_94" d="M159.952 370.955C164.209 370.955 167.659 367.504 167.659 363.247C167.659 358.991 164.209 355.54 159.952 355.54C155.695 355.54 152.245 358.991 152.245 363.247C152.245 367.504 155.695 370.955 159.952 370.955Z" fill="#E6E6E6"/>
<path id="Vector_95" d="M198.967 370.955C203.223 370.955 206.674 367.504 206.674 363.247C206.674 358.991 203.223 355.54 198.967 355.54C194.71 355.54 191.259 358.991 191.259 363.247C191.259 367.504 194.71 370.955 198.967 370.955Z" fill="#E6E6E6"/>
<path id="Vector_96" d="M237.981 370.955C242.238 370.955 245.689 367.504 245.689 363.247C245.689 358.991 242.238 355.54 237.981 355.54C233.724 355.54 230.274 358.991 230.274 363.247C230.274 367.504 233.724 370.955 237.981 370.955Z" fill="#E6E6E6"/>
<path id="Vector_97" d="M276.996 370.955C281.252 370.955 284.703 367.504 284.703 363.247C284.703 358.991 281.252 355.54 276.996 355.54C272.739 355.54 269.288 358.991 269.288 363.247C269.288 367.504 272.739 370.955 276.996 370.955Z" fill="#E6E6E6"/>
<path id="Vector_98" d="M316.01 370.955C320.267 370.955 323.718 367.504 323.718 363.247C323.718 358.991 320.267 355.54 316.01 355.54C311.754 355.54 308.303 358.991 308.303 363.247C308.303 367.504 311.754 370.955 316.01 370.955Z" fill="#E6E6E6"/>
<path id="Vector_99" d="M355.025 370.955C359.282 370.955 362.732 367.504 362.732 363.247C362.732 358.991 359.282 355.54 355.025 355.54C350.768 355.54 347.318 358.991 347.318 363.247C347.318 367.504 350.768 370.955 355.025 370.955Z" fill="#E6E6E6"/>
<path id="Vector_100" d="M394.04 370.955C398.296 370.955 401.747 367.504 401.747 363.247C401.747 358.991 398.296 355.54 394.04 355.54C389.783 355.54 386.332 358.991 386.332 363.247C386.332 367.504 389.783 370.955 394.04 370.955Z" fill="#E6E6E6"/>
<g id="chart1">
<path id="Vector_101" d="M320.375 305.854L411.849 145.565H228.803L137.232 304.171L228.803 462.778H411.946L503.347 304.468L320.375 305.854Z" fill="#3F3D56"/>
</g>
<g id="chart2">
<path id="Vector_102" d="M526.065 291.005L526.236 290.708L434.665 132.102H434.567L343.093 292.391L526.065 291.005Z" fill="#6C63FF"/>
</g>
<g id="percent2">
<path id="Vector_103" d="M658.541 138.611C657.049 136.867 656.303 134.315 656.303 130.954C656.303 127.625 657.049 125.088 658.541 123.344C659.31 122.469 660.266 121.779 661.339 121.327C662.412 120.874 663.574 120.669 664.737 120.729C665.911 120.668 667.083 120.871 668.168 121.324C669.253 121.776 670.222 122.467 671.005 123.344C672.512 125.088 673.265 127.624 673.266 130.954C673.266 134.316 672.512 136.868 671.005 138.611C670.222 139.488 669.253 140.179 668.168 140.631C667.083 141.084 665.911 141.287 664.737 141.226C663.574 141.286 662.412 141.081 661.339 140.628C660.266 140.175 659.31 139.486 658.541 138.611ZM667.424 135.902C668.096 134.343 668.387 132.647 668.272 130.954C668.382 129.282 668.083 127.607 667.399 126.077C667.146 125.595 666.762 125.196 666.29 124.925C665.819 124.653 665.28 124.522 664.737 124.546C664.203 124.525 663.675 124.658 663.216 124.93C662.756 125.201 662.385 125.6 662.146 126.077C661.48 127.612 661.189 129.284 661.297 130.954C661.186 132.639 661.477 134.327 662.146 135.878C662.385 136.355 662.756 136.754 663.216 137.025C663.675 137.297 664.203 137.43 664.737 137.409C665.282 137.441 665.824 137.315 666.3 137.048C666.777 136.781 667.166 136.383 667.424 135.902V135.902ZM664.408 154.749L683.821 121.2H689.051L669.59 154.749H664.408ZM682.431 152.464C680.938 150.72 680.192 148.152 680.193 144.76C680.193 141.431 680.939 138.902 682.431 137.173C683.25 136.352 684.223 135.7 685.294 135.256C686.366 134.811 687.514 134.582 688.674 134.582C689.834 134.582 690.983 134.811 692.054 135.256C693.125 135.7 694.098 136.352 694.917 137.173C696.409 138.901 697.155 141.446 697.156 144.807C697.156 148.169 696.41 150.721 694.917 152.464C694.102 153.292 693.131 153.95 692.059 154.399C690.987 154.848 689.836 155.079 688.674 155.079C687.512 155.079 686.362 154.848 685.29 154.399C684.218 153.95 683.246 153.292 682.431 152.464ZM691.312 149.731C691.981 148.18 692.272 146.492 692.161 144.807C692.271 143.135 691.972 141.461 691.289 139.93C691.026 139.465 690.644 139.079 690.182 138.81C689.721 138.54 689.196 138.399 688.662 138.399C688.128 138.399 687.603 138.54 687.141 138.81C686.68 139.079 686.298 139.465 686.035 139.93C685.369 141.466 685.079 143.137 685.187 144.807C685.076 146.492 685.367 148.18 686.035 149.731C686.301 150.196 686.685 150.583 687.148 150.852C687.611 151.121 688.138 151.262 688.673 151.262C689.209 151.262 689.735 151.121 690.199 150.852C690.662 150.583 691.046 150.196 691.312 149.731V149.731Z" fill="#3F3D56"/>
</g>
<g id="percent1">
<path id="Vector_104" d="M2.2383 428.008C0.746096 426.265 0 423.713 0 420.352C0 417.022 0.746096 414.485 2.2383 412.741C3.00693 411.867 3.9635 411.177 5.03642 410.724C6.10934 410.271 7.2708 410.067 8.43385 410.127C9.60774 410.065 10.7804 410.268 11.8652 410.721C12.9501 411.174 13.9194 411.864 14.7017 412.741C16.2087 414.485 16.9625 417.022 16.963 420.352C16.963 423.713 16.2093 426.265 14.7017 428.008C13.9195 428.886 12.9502 429.576 11.8653 430.029C10.7805 430.482 9.60778 430.685 8.43385 430.624C7.27076 430.683 6.10926 430.479 5.03633 430.026C3.9634 429.573 3.00684 428.883 2.2383 428.008V428.008ZM11.1208 425.299C11.7933 423.741 12.084 422.045 11.9688 420.352C12.0795 418.679 11.7799 417.005 11.0962 415.474C10.8435 414.993 10.4589 414.593 9.98749 414.322C9.51606 414.051 8.9772 413.919 8.43387 413.943C7.90053 413.922 7.37249 414.056 6.91299 414.327C6.4535 414.599 6.08202 414.997 5.84306 415.474C5.17681 417.01 4.88586 418.682 4.99426 420.352C4.88336 422.037 5.17427 423.724 5.84306 425.275C6.08179 425.753 6.45319 426.151 6.91273 426.423C7.37228 426.695 7.90044 426.828 8.43387 426.807C8.97892 426.838 9.52153 426.713 9.99763 426.446C10.4737 426.178 10.8635 425.781 11.1208 425.299V425.299ZM8.10519 444.147L27.5177 410.598H32.7478L13.2876 444.147H8.10519ZM26.1282 441.861C24.6352 440.118 23.8891 437.55 23.8899 434.157C23.8899 430.828 24.636 428.299 26.1282 426.571C26.9472 425.75 27.9203 425.098 28.9916 424.653C30.0629 424.209 31.2115 423.98 32.3714 423.98C33.5314 423.98 34.6799 424.209 35.7512 424.653C36.8225 425.098 37.7956 425.75 38.6146 426.571C40.106 428.299 40.8521 430.843 40.8529 434.205C40.8529 437.566 40.1068 440.118 38.6146 441.861C37.7995 442.69 36.8276 443.347 35.7558 443.796C34.6839 444.245 33.5335 444.477 32.3714 444.477C31.2093 444.477 30.0589 444.245 28.987 443.796C27.9152 443.347 26.9434 442.69 26.1282 441.861V441.861ZM35.009 439.129C35.6778 437.578 35.9687 435.89 35.8579 434.205C35.9684 432.532 35.6691 430.858 34.9861 429.328C34.7229 428.863 34.3411 428.476 33.8795 428.207C33.418 427.938 32.8933 427.796 32.3591 427.796C31.8248 427.796 31.3002 427.938 30.8387 428.207C30.3771 428.476 29.9953 428.863 29.7321 429.328C29.0666 430.863 28.7759 432.535 28.8841 434.205C28.7735 435.89 29.0641 437.577 29.7321 439.129C29.9979 439.594 30.3819 439.98 30.8453 440.249C31.3086 440.518 31.8349 440.66 32.3706 440.66C32.9063 440.66 33.4325 440.518 33.8959 440.249C34.3592 439.98 34.7433 439.594 35.009 439.129V439.129Z" fill="#3F3D56"/>
</g>
<g id="line2">
<path id="Vector_105" d="M439.283 234.863L438.098 234.548L463.952 137.291H613.913V138.517H464.894L439.283 234.863Z" fill="#2F2E41"/>
<path id="Vector_106" d="M626.166 150.77C623.622 150.77 621.134 150.015 619.018 148.602C616.903 147.188 615.254 145.179 614.28 142.828C613.306 140.477 613.051 137.89 613.548 135.394C614.044 132.898 615.269 130.606 617.069 128.806C618.868 127.007 621.161 125.782 623.656 125.285C626.152 124.789 628.739 125.044 631.09 126.017C633.441 126.991 635.45 128.64 636.864 130.756C638.278 132.872 639.032 135.359 639.032 137.904C639.029 141.315 637.672 144.585 635.26 146.997C632.848 149.409 629.578 150.766 626.166 150.77V150.77ZM626.166 126.263C623.864 126.263 621.614 126.946 619.699 128.225C617.785 129.504 616.293 131.322 615.412 133.449C614.531 135.576 614.3 137.917 614.749 140.175C615.199 142.433 616.307 144.507 617.935 146.135C619.563 147.763 621.637 148.872 623.895 149.321C626.153 149.77 628.494 149.54 630.621 148.659C632.748 147.777 634.566 146.285 635.845 144.371C637.124 142.457 637.807 140.206 637.807 137.904C637.804 134.818 636.576 131.859 634.394 129.677C632.211 127.494 629.253 126.267 626.166 126.263V126.263Z" fill="#2F2E41"/>
<path id="Vector_107" d="M626.166 142.805C628.873 142.805 631.068 140.611 631.068 137.904C631.068 135.197 628.873 133.003 626.166 133.003C623.459 133.003 621.265 135.197 621.265 137.904C621.265 140.611 623.459 142.805 626.166 142.805Z" fill="#6C63FF"/>
</g>
<g id="line1">
<path id="Vector_108" d="M249.956 330.343L251.141 330.658L225.287 427.914H75.326V426.689H224.345L249.956 330.343Z" fill="#2F2E41"/>
<path id="Vector_109" d="M63.0725 414.436C65.6172 414.436 68.1047 415.19 70.2205 416.604C72.3363 418.018 73.9854 420.027 74.9592 422.378C75.933 424.729 76.1878 427.316 75.6913 429.812C75.1949 432.307 73.9695 434.6 72.1702 436.399C70.3708 438.199 68.0783 439.424 65.5826 439.92C63.0868 440.417 60.4999 440.162 58.1489 439.188C55.798 438.214 53.7886 436.565 52.3748 434.45C50.9611 432.334 50.2065 429.846 50.2065 427.302C50.2104 423.89 51.5672 420.62 53.9792 418.208C56.3912 415.796 59.6615 414.439 63.0725 414.436V414.436ZM63.0725 438.942C65.3748 438.942 67.6254 438.259 69.5397 436.98C71.454 435.701 72.946 433.883 73.8271 431.756C74.7082 429.629 74.9387 427.289 74.4895 425.031C74.0404 422.772 72.9317 420.698 71.3037 419.07C69.6758 417.442 67.6016 416.334 65.3435 415.885C63.0855 415.435 60.7449 415.666 58.6179 416.547C56.4908 417.428 54.6728 418.92 53.3937 420.834C52.1146 422.749 51.4319 424.999 51.4319 427.302C51.4354 430.388 52.6629 433.347 54.8452 435.529C57.0275 437.711 59.9863 438.939 63.0725 438.942V438.942Z" fill="#2F2E41"/>
<path id="Vector_110" d="M63.0726 432.203C65.7795 432.203 67.9739 430.008 67.9739 427.301C67.9739 424.595 65.7795 422.4 63.0726 422.4C60.3657 422.4 58.1713 424.595 58.1713 427.301C58.1713 430.008 60.3657 432.203 63.0726 432.203Z" fill="#6C63FF"/>
</g>
<g id="person">
<path id="Vector_111" d="M885.132 641.931H617.731V639.746H885.528L885.132 641.931Z" fill="#3F3D56"/>
<path id="Vector_112" d="M737.756 621.28H719.152V646.581H737.756V621.28Z" fill="#A0616A"/>
<path id="Vector_113" d="M832.264 621.28H813.66V646.581H832.264V621.28Z" fill="#A0616A"/>
<path id="Vector_114" d="M834.496 626.489L812.172 625.745L775.708 405.475L739.244 626.489L717.664 625.745L711.711 371.243H836.729L834.496 626.489Z" fill="#2F2E41"/>
<path id="Vector_115" d="M737.29 664.147C718.349 664.695 703.522 659.575 693.8 647.419C692.779 646.139 692.173 644.577 692.064 642.943C691.956 641.309 692.349 639.68 693.193 638.276C693.988 636.951 695.148 635.884 696.534 635.202C697.921 634.521 699.474 634.254 701.009 634.433L707.164 635.152L719.981 628.748C717.359 643.995 724.49 644.282 741.549 639.171L744.623 654.922C744.839 656.022 744.814 657.156 744.549 658.245C744.285 659.334 743.786 660.352 743.089 661.23C742.391 662.107 741.511 662.823 740.51 663.326C739.509 663.83 738.41 664.11 737.29 664.147Z" fill="#2F2E41"/>
<path id="Vector_116" d="M831.798 664.147C812.857 664.695 798.03 659.575 788.308 647.419C787.287 646.139 786.681 644.577 786.572 642.943C786.464 641.309 786.857 639.68 787.701 638.276V638.276C788.495 636.951 789.656 635.884 791.042 635.202C792.428 634.521 793.982 634.254 795.517 634.433L801.672 635.152L814.392 629.786C811.77 645.032 818.998 644.282 836.057 639.171L839.131 654.922C839.347 656.022 839.322 657.156 839.057 658.245C838.792 659.334 838.294 660.352 837.597 661.23C836.899 662.107 836.019 662.823 835.018 663.326C834.017 663.83 832.918 664.11 831.798 664.147Z" fill="#2F2E41"/>
<path id="Vector_117" d="M768.267 138.322C784.706 138.322 798.033 124.996 798.033 108.556C798.033 92.1167 784.706 78.7899 768.267 78.7899C751.827 78.7899 738.5 92.1167 738.5 108.556C738.5 124.996 751.827 138.322 768.267 138.322Z" fill="#A0616A"/>
<path id="Vector_118" d="M798.033 162.88L766.034 164.368L764.546 130.881L792.08 120.463L798.033 162.88Z" fill="#A0616A"/>
<path id="Vector_119" d="M844.171 381.662C800.534 373.405 750.82 370.447 717.664 381.662L728.082 162.88L763.057 152.461L765.662 148.369L795.056 143.532L809.195 147.996L818.125 161.391L856.821 182.972C837.773 256.655 832.132 323.601 844.171 381.662Z" fill="#2F2E41"/>
<path id="Vector_120" d="M725.85 377.197L694.595 374.964L713.199 269.294L719.497 181.36C718.517 168.536 725.371 161.085 735.524 160.647C757.701 186.909 760.272 223.101 753.383 264.085L725.85 377.197Z" fill="#2F2E41"/>
<path id="Vector_121" d="M777.921 130.442L774.082 119.514C771.928 113.383 768.148 107.952 763.146 103.804C758.143 99.6556 752.107 96.9452 745.683 95.9629V95.9629L721.626 95.4114L728.305 84.6772C731.527 79.5006 736.133 75.3298 741.603 72.6373C747.073 69.9447 753.188 68.8382 759.255 69.4429L783.298 71.8395C789.022 72.4101 794.288 75.2219 797.946 79.6611C801.604 84.1002 803.358 89.8063 802.823 95.5337L800.618 119.18C800.383 121.707 799.505 124.133 798.068 126.226C796.631 128.319 794.683 130.01 792.409 131.138C790.135 132.266 787.61 132.795 785.074 132.673C782.539 132.551 780.076 131.783 777.921 130.442V130.442Z" fill="#2F2E41"/>
<path id="Vector_122" d="M865.007 380.173L833.008 376.453C839.678 343.956 836.95 301.686 838.589 259.248C839.629 232.332 845.211 207.837 847.147 177.763C859.283 180.927 865.566 192.196 865.638 205.476C865.981 268.463 871.931 327.48 865.007 380.173Z" fill="#2F2E41"/>
<path id="Vector_123" d="M845.17 411.428C843.576 411.428 842 411.083 840.552 410.416C839.104 409.749 837.818 408.776 836.781 407.564C835.745 406.353 834.983 404.931 834.549 403.397C834.114 401.863 834.017 400.253 834.264 398.678L837.311 379.253L838.217 373.476H852.356L853.1 381.662L856.045 398.485C856.322 400.072 856.249 401.7 855.831 403.256C855.413 404.811 854.659 406.257 853.623 407.49C852.586 408.723 851.293 409.715 849.833 410.395C848.373 411.075 846.781 411.428 845.17 411.428Z" fill="#A0616A"/>
<path id="Vector_124" d="M706.757 409.195C705.163 409.195 703.587 408.85 702.139 408.183C700.691 407.516 699.404 406.543 698.368 405.332C697.332 404.12 696.57 402.698 696.135 401.164C695.701 399.63 695.604 398.02 695.851 396.445L698.898 377.02L699.804 371.243H713.943L714.687 379.429L717.631 396.253C717.909 397.84 717.836 399.468 717.418 401.023C716.999 402.579 716.246 404.024 715.209 405.257C714.173 406.491 712.88 407.482 711.419 408.163C709.959 408.843 708.368 409.195 706.757 409.195V409.195Z" fill="#A0616A"/>
</g>
</g>
</svg>
