<svg width="893" height="542" viewBox="0 0 893 542" fill="none" xmlns="http://www.w3.org/2000/svg">
<rect width="893" height="542" fill="white"/>
<g id="Frame 1">
<g id="floor">
<path id="Vector" d="M444.003 541.802C689.219 541.802 888.006 533.743 888.006 523.802C888.006 513.861 689.219 505.802 444.003 505.802C198.787 505.802 0 513.861 0 523.802C0 533.743 198.787 541.802 444.003 541.802Z" fill="#E6E6E6"/>
</g>
<g id="clock">
<path id="Vector_2" d="M459.056 525.897C575.313 525.897 669.559 431.651 669.559 315.393C669.559 199.135 575.313 104.89 459.056 104.89C342.798 104.89 248.552 199.135 248.552 315.393C248.552 431.651 342.798 525.897 459.056 525.897Z" fill="#3F3D56"/>
<path id="Vector_3" d="M459.056 508.471C565.689 508.471 652.133 422.027 652.133 315.393C652.133 208.759 565.689 122.315 459.056 122.315C352.422 122.315 265.978 208.759 265.978 315.393C265.978 422.027 352.422 508.471 459.056 508.471Z" fill="white"/>
<path id="Vector_4" d="M458.359 341.88C472.602 341.88 484.149 330.334 484.149 316.09C484.149 301.847 472.602 290.3 458.359 290.3C444.115 290.3 432.568 301.847 432.568 316.09C432.568 330.334 444.115 341.88 458.359 341.88Z" fill="#3F3D56"/>
<path id="Vector_5" d="M463.935 132.074H452.782V152.985H463.935V132.074Z" fill="#3F3D56"/>
<path id="Vector_6" d="M463.935 479.196H452.782V500.107H463.935V479.196Z" fill="#3F3D56"/>
<path id="Vector_7" d="M295.253 321.667V310.514H274.342V321.667H295.253Z" fill="#3F3D56"/>
<path id="Vector_8" d="M642.375 321.667V310.514H621.464V321.667H642.375Z" fill="#3F3D56"/>
<g id="arrow">
<path id="Vector_9" d="M450.924 327.286L460.455 305.493L579.88 371.635L450.924 327.286Z" fill="#3F3D56"/>
</g>
<path id="Vector_10" d="M486.24 54.0063H431.871V116.739H486.24V54.0063Z" fill="#3F3D56"/>
<path id="Vector_11" d="M459.056 71.4321C493.702 71.4321 521.788 63.6304 521.788 54.0064C521.788 44.3824 493.702 36.5806 459.056 36.5806C424.409 36.5806 396.323 44.3824 396.323 54.0064C396.323 63.6304 424.409 71.4321 459.056 71.4321Z" fill="#3F3D56"/>
</g>
<g id="spring">
<path id="Vector_12" d="M73.8961 118.33C99.3012 118.33 119.896 97.7347 119.896 72.3296C119.896 46.9245 99.3012 26.3296 73.8961 26.3296C48.491 26.3296 27.8961 46.9245 27.8961 72.3296C27.8961 97.7347 48.491 118.33 73.8961 118.33Z" fill="#FF6584"/>
<path id="Vector_13" d="M113 298.219C175.408 298.219 226 247.628 226 185.219C226 122.811 175.408 72.2194 113 72.2194C50.5918 72.2194 0 122.811 0 185.219C0 247.628 50.5918 298.219 113 298.219Z" fill="#6C63FF"/>
<path id="Vector_14" d="M123.892 525.581H100.747L111.298 168.201L123.892 525.581Z" fill="#3F3D56"/>
<path id="Vector_15" d="M113.34 235.933L138.187 201.557L113 244.442L110.277 239.677L113.34 235.933Z" fill="#3F3D56"/>
<path id="Vector_16" d="M110.617 270.65L85.771 236.274L110.958 279.159L113.681 274.394L110.617 270.65Z" fill="#3F3D56"/>
</g>
<g id="person">
<path id="Vector_17" d="M675.725 369.146L678.643 374.384C678.643 374.384 688.791 396.928 680.303 393.68C671.815 390.432 671.515 376.408 671.515 376.408L670.718 368.318L675.725 369.146Z" fill="#FFB8B8"/>
<path id="Vector_18" d="M660.034 276.267C671.755 276.267 681.258 266.764 681.258 255.042C681.258 243.321 671.755 233.818 660.034 233.818C648.312 233.818 638.809 243.321 638.809 255.042C638.809 266.764 648.312 276.267 660.034 276.267Z" fill="#2F2E41"/>
<path id="Vector_19" d="M658.058 429.358L660.846 447.481V453.057H676.878V446.087C676.878 446.087 677.575 433.54 674.787 430.055C671.999 426.57 658.058 429.358 658.058 429.358Z" fill="#FFB8B8"/>
<path id="Vector_20" d="M629.48 429.358L632.268 447.481V453.057H648.3V446.087C648.3 446.087 648.997 433.54 646.209 430.055C643.421 426.57 629.48 429.358 629.48 429.358Z" fill="#FFB8B8"/>
<path id="Vector_21" d="M640.268 283.785C640.268 283.785 634.102 287.035 638.314 294.428C642.525 301.82 667.236 378.304 667.236 378.304L681.492 374.257L668.92 325.887L661.721 295.485L640.268 283.785Z" fill="#6C63FF"/>
<path id="Vector_22" d="M657.71 277.057C666.564 277.057 673.741 269.879 673.741 261.025C673.741 252.171 666.564 244.993 657.71 244.993C648.856 244.993 641.678 252.171 641.678 261.025C641.678 269.879 648.856 277.057 657.71 277.057Z" fill="#FFB8B8"/>
<path id="Vector_23" d="M665.029 263.464L662.937 296.225L648.3 285.769C648.3 285.769 653.179 266.252 651.785 264.858L665.029 263.464Z" fill="#FFB8B8"/>
<path id="Vector_24" d="M665.029 293.437L649.259 281.76C649.259 281.76 642.026 278.799 639.935 282.284C637.844 285.769 627.389 337.35 632.965 347.108C632.965 347.108 662.937 353.382 669.211 349.896L671.999 331.774C671.999 331.774 675.484 320.621 669.908 313.651L665.029 293.437Z" fill="#6C63FF"/>
<path id="Vector_25" d="M669.559 349.548C669.559 349.548 635.056 342.926 631.571 347.805L630.874 355.473C630.874 355.473 623.207 370.11 627.389 393.809C631.571 417.508 628.783 432.146 628.783 432.146C628.783 432.146 647.603 430.055 661.543 432.146C675.484 434.237 677.575 432.146 677.575 432.146L669.559 349.548Z" fill="#2F2E41"/>
<path id="Vector_26" d="M678.272 450.269L658.058 450.966L665.029 503.243C665.029 503.243 659.452 525.548 665.725 526.942C670.086 527.823 674.521 528.289 678.969 528.336C678.969 528.336 685.242 534.61 692.213 533.913C696.842 533.321 701.327 531.905 705.456 529.73C705.456 529.73 706.85 525.548 701.971 524.154C697.092 522.76 683.848 518.578 681.06 503.94L678.272 450.269Z" fill="#2F2E41"/>
<path id="Vector_27" d="M649.694 450.269L629.48 450.966L636.45 503.243C636.45 503.243 630.874 525.548 637.147 526.942C641.508 527.823 645.942 528.289 650.391 528.336C650.391 528.336 656.664 534.61 663.634 533.913C668.263 533.321 672.749 531.905 676.878 529.73C676.878 529.73 678.272 525.548 673.393 524.154C668.514 522.76 655.27 518.578 652.482 503.94L649.694 450.269Z" fill="#2F2E41"/>
<path id="Vector_28" d="M667.458 241.487C672.308 241.487 676.24 237.554 676.24 232.704C676.24 227.854 672.308 223.922 667.458 223.922C662.608 223.922 658.676 227.854 658.676 232.704C658.676 237.554 662.608 241.487 667.458 241.487Z" fill="#2F2E41"/>
<path id="Vector_29" d="M679.168 227.947C679.168 225.776 678.364 223.682 676.911 222.069C675.458 220.456 673.459 219.438 671.3 219.212C671.604 219.18 671.91 219.165 672.215 219.164C674.544 219.164 676.778 220.09 678.425 221.737C680.072 223.384 680.998 225.618 680.998 227.947C680.998 230.276 680.072 232.51 678.425 234.157C676.778 235.804 674.544 236.729 672.215 236.729C671.91 236.729 671.604 236.713 671.3 236.682C673.459 236.456 675.458 235.438 676.911 233.825C678.364 232.212 679.168 230.118 679.168 227.947V227.947Z" fill="#2F2E41"/>
<path id="Vector_30" d="M657.565 259.325C665.649 259.325 672.202 255.393 672.202 250.542C672.202 245.692 665.649 241.76 657.565 241.76C649.48 241.76 642.927 245.692 642.927 250.542C642.927 255.393 649.48 259.325 657.565 259.325Z" fill="#2F2E41"/>
<g id="hand">
<path id="Vector_31" d="M576.505 352.684L573.02 357.564C573.02 357.564 556.989 376.384 556.291 367.322C555.594 358.261 568.141 351.987 568.141 351.987L575.111 347.805L576.505 352.684Z" fill="#FFB8B8"/>
<path id="Vector_32" d="M644.118 282.981C644.118 282.981 638.541 278.799 633.662 285.769C628.783 292.74 570.232 347.805 570.232 347.805L579.991 358.958L618.327 326.894L642.723 307.377L644.118 282.981Z" fill="#6C63FF"/>
</g>
</g>
<g id="winter">
<path id="Vector_33" d="M827.505 525.957H804.361L814.912 168.577L827.505 525.957Z" fill="#3F3D56"/>
<path id="Vector_34" d="M816.954 236.309L841.801 201.933L816.614 244.818L813.891 240.053L816.954 236.309Z" fill="#3F3D56"/>
<path id="Vector_35" d="M814.231 271.026L789.385 236.65L814.572 279.535L817.295 274.77L814.231 271.026Z" fill="#3F3D56"/>
<path id="Vector_36" d="M888.12 43.1512C887.522 32.5801 883.189 22.5649 875.894 14.8912C868.598 7.21752 858.815 2.38418 848.288 1.25292C837.76 0.121663 827.173 2.76603 818.414 8.71454C809.655 14.6631 803.293 23.529 800.463 33.7318C799.922 33.7124 799.381 33.6906 798.835 33.6906C789.183 33.6924 779.791 36.8194 772.063 42.6037C764.336 48.388 758.69 56.5188 755.969 65.7795C749.573 62.9692 742.425 62.3595 735.645 64.0459C728.866 65.7322 722.837 69.6195 718.503 75.0988H857.865C861.931 75.1103 865.957 74.3012 869.703 72.7201C873.448 71.139 876.837 68.8184 879.664 65.8971C882.492 62.9758 884.701 59.5139 886.159 55.7188C887.618 51.9236 888.295 47.8733 888.151 43.8101C888.142 43.5908 888.132 43.3712 888.12 43.1512Z" fill="#E6E6E6"/>
<path id="Vector_37" d="M771.614 137.178C778.241 137.178 783.614 131.805 783.614 125.178C783.614 118.551 778.241 113.178 771.614 113.178C764.986 113.178 759.614 118.551 759.614 125.178C759.614 131.805 764.986 137.178 771.614 137.178Z" fill="#E6E6E6"/>
<path id="Vector_38" d="M807.847 106.877C813.365 106.877 817.839 102.404 817.839 96.8857C817.839 91.3673 813.365 86.8939 807.847 86.8939C802.329 86.8939 797.855 91.3673 797.855 96.8857C797.855 102.404 802.329 106.877 807.847 106.877Z" fill="#E6E6E6"/>
<path id="Vector_39" d="M856.614 163.178C863.241 163.178 868.614 157.805 868.614 151.178C868.614 144.551 863.241 139.178 856.614 139.178C849.986 139.178 844.614 144.551 844.614 151.178C844.614 157.805 849.986 163.178 856.614 163.178Z" fill="#E6E6E6"/>
<path id="Vector_40" d="M765.614 218.178C772.241 218.178 777.614 212.805 777.614 206.178C777.614 199.551 772.241 194.178 765.614 194.178C758.986 194.178 753.614 199.551 753.614 206.178C753.614 212.805 758.986 218.178 765.614 218.178Z" fill="#E6E6E6"/>
<path id="Vector_41" d="M856.614 287.178C863.241 287.178 868.614 281.805 868.614 275.178C868.614 268.551 863.241 263.178 856.614 263.178C849.986 263.178 844.614 268.551 844.614 275.178C844.614 281.805 849.986 287.178 856.614 287.178Z" fill="#E6E6E6"/>
<path id="Vector_42" d="M837.594 506.566C837.598 506.436 837.614 506.309 837.614 506.178C837.617 504.167 837.114 502.188 836.151 500.423C835.188 498.658 833.797 497.163 832.105 496.077C830.413 494.991 828.474 494.348 826.468 494.207C824.463 494.067 822.454 494.433 820.627 495.273C818.912 493.294 816.596 491.933 814.033 491.396C811.471 490.86 808.803 491.179 806.439 492.304C804.075 493.429 802.145 495.298 800.945 497.625C799.745 499.952 799.341 502.609 799.795 505.187C799.734 505.186 799.675 505.178 799.614 505.178C797.704 505.175 795.82 505.628 794.12 506.5C792.42 507.371 790.953 508.636 789.84 510.189C788.728 511.742 788.002 513.538 787.723 515.428C787.445 517.318 787.621 519.247 788.239 521.055C788.856 522.863 789.896 524.497 791.272 525.822C792.648 527.147 794.321 528.125 796.151 528.673C797.981 529.221 799.915 529.325 801.793 528.975C803.671 528.625 805.438 527.832 806.948 526.661C807.901 528.517 809.321 530.092 811.068 531.231C812.815 532.37 814.829 533.034 816.912 533.157C818.994 533.28 821.072 532.858 822.941 531.932C824.81 531.006 826.406 529.609 827.57 527.878C828.998 528.917 830.638 529.628 832.372 529.959C834.106 530.291 835.892 530.235 837.603 529.797C839.313 529.358 840.906 528.547 842.266 527.421C843.627 526.296 844.722 524.884 845.474 523.286C846.225 521.688 846.615 519.944 846.614 518.178C846.613 516.412 846.223 514.669 845.47 513.071C844.717 511.474 843.621 510.063 842.259 508.938C840.898 507.814 839.305 507.004 837.594 506.566V506.566Z" fill="#E6E6E6"/>
<path id="Vector_43" d="M867.614 232.178C870.375 232.178 872.614 229.939 872.614 227.178C872.614 224.417 870.375 222.178 867.614 222.178C864.852 222.178 862.614 224.417 862.614 227.178C862.614 229.939 864.852 232.178 867.614 232.178Z" fill="#E6E6E6"/>
<path id="Vector_44" d="M835.614 112.178C838.375 112.178 840.614 109.939 840.614 107.178C840.614 104.417 838.375 102.178 835.614 102.178C832.852 102.178 830.614 104.417 830.614 107.178C830.614 109.939 832.852 112.178 835.614 112.178Z" fill="#E6E6E6"/>
<path id="Vector_45" d="M818.614 236.178C821.375 236.178 823.614 233.939 823.614 231.178C823.614 228.417 821.375 226.178 818.614 226.178C815.852 226.178 813.614 228.417 813.614 231.178C813.614 233.939 815.852 236.178 818.614 236.178Z" fill="#E6E6E6"/>
<path id="Vector_46" d="M822.614 231.178C825.375 231.178 827.614 228.939 827.614 226.178C827.614 223.417 825.375 221.178 822.614 221.178C819.852 221.178 817.614 223.417 817.614 226.178C817.614 228.939 819.852 231.178 822.614 231.178Z" fill="#E6E6E6"/>
<path id="Vector_47" d="M825.614 226.178C828.375 226.178 830.614 223.939 830.614 221.178C830.614 218.417 828.375 216.178 825.614 216.178C822.852 216.178 820.614 218.417 820.614 221.178C820.614 223.939 822.852 226.178 825.614 226.178Z" fill="#E6E6E6"/>
<path id="Vector_48" d="M813.614 268.178C816.375 268.178 818.614 265.939 818.614 263.178C818.614 260.417 816.375 258.178 813.614 258.178C810.852 258.178 808.614 260.417 808.614 263.178C808.614 265.939 810.852 268.178 813.614 268.178Z" fill="#E6E6E6"/>
<path id="Vector_49" d="M780.614 327.178C783.375 327.178 785.614 324.939 785.614 322.178C785.614 319.417 783.375 317.178 780.614 317.178C777.852 317.178 775.614 319.417 775.614 322.178C775.614 324.939 777.852 327.178 780.614 327.178Z" fill="#E6E6E6"/>
<path id="Vector_50" d="M786.614 173.178C789.375 173.178 791.614 170.939 791.614 168.178C791.614 165.417 789.375 163.178 786.614 163.178C783.852 163.178 781.614 165.417 781.614 168.178C781.614 170.939 783.852 173.178 786.614 173.178Z" fill="#E6E6E6"/>
<path id="Vector_51" d="M809.614 263.178C812.375 263.178 814.614 260.939 814.614 258.178C814.614 255.417 812.375 253.178 809.614 253.178C806.852 253.178 804.614 255.417 804.614 258.178C804.614 260.939 806.852 263.178 809.614 263.178Z" fill="#E6E6E6"/>
<path id="Vector_52" d="M804.614 255.178C807.375 255.178 809.614 252.939 809.614 250.178C809.614 247.417 807.375 245.178 804.614 245.178C801.852 245.178 799.614 247.417 799.614 250.178C799.614 252.939 801.852 255.178 804.614 255.178Z" fill="#E6E6E6"/>
<path id="Vector_53" d="M887.614 324.178C890.375 324.178 892.614 321.939 892.614 319.178C892.614 316.417 890.375 314.178 887.614 314.178C884.852 314.178 882.614 316.417 882.614 319.178C882.614 321.939 884.852 324.178 887.614 324.178Z" fill="#E6E6E6"/>
</g>
</g>
</svg>
