<svg width="885" height="680" viewBox="0 0 885 680" fill="none" xmlns="http://www.w3.org/2000/svg">
<rect width="885" height="680" fill="white"/>
<g id="Frame 1">
<path id="Vector" d="M884.596 139.171H368V470.017H884.596V139.171Z" fill="#E6E6E6"/>
<path id="Vector_2" d="M836.191 175.809H416.404V433.379H836.191V175.809Z" fill="white"/>
<g id="town">
<path id="Vector_3" d="M836.191 225.274H416.404V241.089H836.191V225.274Z" fill="#E6E6E6"/>
<path id="Vector_4" d="M836.191 302.591H416.404V318.406H836.191V302.591Z" fill="#E6E6E6"/>
<path id="Vector_5" d="M652.318 260.418H474.84V276.233H652.318V260.418Z" fill="#E6E6E6"/>
<path id="Vector_6" d="M836.191 384.301H416.404V400.115H836.191V384.301Z" fill="#E6E6E6"/>
<path id="Vector_7" d="M482.747 175.809H466.933V393.965H482.747V175.809Z" fill="#E6E6E6"/>
<path id="Vector_8" d="M777.958 175.809H762.143V311.377H777.958V175.809Z" fill="#E6E6E6"/>
<path id="Vector_9" d="M658.468 175.809H642.653V433.379H658.468V175.809Z" fill="#E6E6E6"/>
<path id="Vector_10" d="M567.972 305.227H552.157V433.379H567.972V305.227Z" fill="#E6E6E6"/>
</g>
<g id="circle">
<path id="Vector_11" d="M650.56 330.706C661.721 330.706 670.768 321.659 670.768 310.498C670.768 299.338 661.721 290.29 650.56 290.29C639.4 290.29 630.353 299.338 630.353 310.498C630.353 321.659 639.4 330.706 650.56 330.706Z" fill="#6C63FF"/>
</g>
<g id="person">
<path id="Vector_12" d="M124.484 679.043C193.235 679.043 248.969 671.614 248.969 662.451C248.969 653.288 193.235 645.86 124.484 645.86C55.7335 645.86 0 653.288 0 662.451C0 671.614 55.7335 679.043 124.484 679.043Z" fill="#E6E6E6"/>
<path id="Vector_13" d="M63.767 385.875V543.875L67.767 645.875H100.767L98.767 547.875L111.767 453.875L133.767 532.875L147.767 643.875L187.767 641.875L166.767 527.875L160.767 385.875H63.767Z" fill="#2F2E41"/>
<path id="Vector_14" d="M72.7667 640.875V650.875C72.7667 650.875 49.7667 672.875 68.7667 672.875C87.7667 672.875 88.7667 667.875 88.7667 667.875C88.7667 667.875 95.7667 667.875 95.7667 665.875V641.875L72.7667 640.875Z" fill="#2F2E41"/>
<path id="Vector_15" d="M178.767 640.875V650.875C178.767 650.875 201.767 672.875 182.767 672.875C163.767 672.875 162.767 667.875 162.767 667.875C162.767 667.875 155.767 667.875 155.767 665.875V641.875L178.767 640.875Z" fill="#2F2E41"/>
<path id="Vector_16" d="M104.767 251.875C118.022 251.875 128.767 241.129 128.767 227.875C128.767 214.62 118.022 203.875 104.767 203.875C91.5119 203.875 80.7667 214.62 80.7667 227.875C80.7667 241.129 91.5119 251.875 104.767 251.875Z" fill="#FFB8B8"/>
<path id="Vector_17" d="M85.767 235.875L86.767 271.875L118.767 270.875V242.875L85.767 235.875Z" fill="#FFB8B8"/>
<path id="Vector_18" d="M100.767 267.875L85.767 256.875L79.767 391.875L150.767 389.875L133.767 271.875L118.767 257.501L100.767 267.875Z" fill="#CFCCE0"/>
<path id="Vector_19" d="M80.7667 264.875L86.2296 252.536L87.7667 274.875C87.7667 274.875 100.767 316.875 99.7667 353.875C98.7667 390.875 104.767 477.875 96.7667 478.875C88.7667 479.875 54.7667 481.875 54.7667 474.875C54.7667 467.875 52.7667 281.875 52.7667 281.875L80.7667 264.875Z" fill="#2F2E41"/>
<path id="Vector_20" d="M118.767 253.875L130.767 266.875L160.767 277.875C160.767 277.875 160.767 405.875 166.767 435.875C172.767 465.875 183.767 468.875 169.767 469.875C155.767 470.875 156.767 465.875 156.767 465.875C156.767 465.875 166.767 415.875 153.767 405.875C140.767 395.875 115.767 337.875 117.767 305.875C119.767 273.875 116.767 253.875 118.767 253.875Z" fill="#2F2E41"/>
<path id="Vector_21" d="M44.7667 437.875L46.7667 446.875C46.7667 446.875 47.7667 484.875 61.7667 479.875C75.7667 474.875 60.7667 443.875 60.7667 443.875V437.875H44.7667Z" fill="#FFB8B8"/>
<path id="Vector_22" d="M169.267 415.375L157.767 429.875L153.767 416.875L157.267 402.375L169.267 415.375Z" fill="#FFB8B8"/>
<path id="Vector_23" d="M147.767 276.875L157.267 276.591C158.938 276.451 160.606 276.904 161.977 277.87C163.348 278.836 164.336 280.254 164.767 281.875C166.767 287.875 173.767 348.875 173.767 348.875C173.767 348.875 179.767 358.875 177.767 373.875L170.767 429.875L150.767 407.875L153.767 357.875L147.767 276.875Z" fill="#2F2E41"/>
<path id="Vector_24" d="M57.7667 281.875L55.1114 280.451C55.1114 280.451 40.7667 285.875 41.7667 289.875C42.7667 293.875 33.7667 433.875 36.7667 438.875C39.7667 443.875 63.7667 439.875 63.7667 439.875L57.7667 281.875Z" fill="#2F2E41"/>
<path id="Vector_25" d="M127.557 212.971C127.557 212.971 135.563 202.114 121.911 199.016C121.911 199.016 110.458 189.677 99.1566 196.769C99.1566 196.769 90.6833 193.337 87.2291 199.393C87.2291 199.393 86.4454 195.996 90.5261 194.408C90.5261 194.408 82.0527 190.976 80.4805 201.684C80.4805 201.684 75.142 211.839 77.4932 222.029C79.8444 232.219 80.9426 233.474 80.9426 233.474C80.9426 233.474 77.7203 212.36 92.9424 213.501C108.164 214.643 126.381 207.876 125.907 219.839C125.433 231.802 127.472 235.383 127.472 235.383C127.472 235.383 141.286 219.91 127.557 212.971Z" fill="#2F2E41"/>
</g>
<g id="pin">
<path id="Vector_26" d="M652.318 0C632.053 2.65216e-06 612.618 8.05005 598.289 22.3792C583.96 36.7084 575.91 56.143 575.91 76.4075C575.91 118.606 652.318 278.342 652.318 278.342C652.318 278.342 728.725 118.606 728.725 76.4075C728.725 56.143 720.675 36.7084 706.346 22.3792C692.017 8.05005 672.582 2.65216e-06 652.318 0V0ZM652.318 112.792C645.121 112.792 638.087 110.658 632.103 106.66C626.12 102.662 621.456 96.9796 618.703 90.3312C615.949 83.6828 615.228 76.3671 616.632 69.3092C618.036 62.2513 621.501 55.7682 626.59 50.6797C631.678 45.5912 638.161 42.126 645.219 40.7221C652.277 39.3181 659.593 40.0387 666.241 42.7925C672.89 45.5464 678.572 50.2099 682.57 56.1933C686.568 62.1767 688.702 69.2113 688.702 76.4075C688.702 86.0573 684.869 95.3118 678.045 102.135C671.222 108.959 661.967 112.792 652.318 112.792V112.792Z" fill="#6C63FF"/>
</g>
</g>
</svg>
