<svg width="1117" height="741" viewBox="0 0 1117 741" fill="none" xmlns="http://www.w3.org/2000/svg">
<rect width="1117" height="741" fill="white"/>
<g id="Frame 1">
<g id="chat3">
<path id="Vector" d="M834.81 262.202V465.978C844.123 445.672 858.045 427.82 875.47 413.84C875.821 413.552 876.177 413.271 876.534 412.994C880.078 410.198 883.755 407.573 887.563 405.118C887.811 404.963 888.058 404.801 888.306 404.652C911.219 390.067 937.826 382.341 964.988 382.386H1116.62V262.202H834.81Z" fill="#D0CDE1"/>
<path id="Vector_2" opacity="0.1" d="M1081.42 332.511H1104.65V309.289H1081.42V332.511Z" fill="black"/>
<path id="Vector_3" d="M846.522 303.484H1037.21V297.678H846.522V303.484Z" fill="#F2F2F2"/>
<path id="Vector_4" d="M846.522 318.221H1037.21V312.415H846.522V318.221Z" fill="#F2F2F2"/>
<path id="Vector_5" d="M846.522 332.958H1037.21V327.152H846.522V332.958Z" fill="#F2F2F2"/>
<path id="Vector_6" d="M1069.37 297.231H1105.09V332.958H1069.37V297.231ZM1104.2 298.125H1070.26V332.065H1104.2V298.125Z" fill="#F2F2F2"/>
<path id="Vector_7" d="M1087.29 323.023L1076.16 310.038L1077.91 308.54L1087.11 319.27L1111.57 284.241L1113.46 285.558L1087.29 323.023Z" fill="#6C63FF"/>
</g>
<g id="stemps">
<path id="Vector_8" d="M835.81 468.45H833.81V665.45H835.81V468.45Z" fill="#3F3D56"/>
<path id="Vector_9" d="M378.81 466.45H376.81V663.45H378.81V466.45Z" fill="#3F3D56"/>
<path id="Vector_10" d="M490.81 351.45H488.81V548.45H490.81V351.45Z" fill="#3F3D56"/>
</g>
<path id="Vector_11" d="M890.888 673.45H298.888C298.888 673.45 286.888 530.483 357.888 528.858C428.888 527.233 420.888 592.219 509.888 502.864C598.888 413.509 706.888 418.383 720.888 471.184C734.888 523.984 693.888 566.224 768.888 553.227C843.888 540.23 951.888 574.348 890.888 673.45Z" fill="#6C63FF"/>
<path id="Vector_12" d="M584.895 673.483L582.897 673.418C587.556 579.289 611.825 518.81 631.363 484.651C652.577 447.56 673.019 432.545 673.223 432.398L674.552 433.612C674.351 433.758 654.147 448.624 633.103 485.463C613.673 519.478 589.537 579.709 584.895 673.483Z" fill="#F2F2F2"/>
<path id="Vector_13" d="M799.154 673.677L797.234 673.223C820.354 608.763 874.796 568.065 875.344 567.661L876.688 568.864C876.145 569.264 822.109 609.675 799.154 673.677Z" fill="#F2F2F2"/>
<path id="Vector_14" d="M392.13 673.562L390.149 673.338C396.478 637.628 389.508 600.837 370.557 569.916C356.191 546.293 339.8 533.392 339.636 533.264L341.02 532.091C341.186 532.221 357.831 545.321 372.35 569.196C391.477 600.398 398.513 637.525 392.13 673.562Z" fill="#F2F2F2"/>
<path id="Vector_15" d="M603.479 683.232C834.058 683.232 1020.98 678.891 1020.98 673.535C1020.98 668.179 834.058 663.838 603.479 663.838C372.9 663.838 185.979 668.179 185.979 673.535C185.979 678.891 372.9 683.232 603.479 683.232Z" fill="#3F3D56"/>
<path id="Vector_16" d="M603.479 712.324C763.111 712.324 892.518 709.319 892.518 705.611C892.518 701.903 763.111 698.897 603.479 698.897C443.848 698.897 314.441 701.903 314.441 705.611C314.441 709.319 443.848 712.324 603.479 712.324Z" fill="#3F3D56"/>
<path id="Vector_17" d="M603.611 740.179C733.83 740.179 839.393 737.727 839.393 734.703C839.393 731.678 733.83 729.226 603.611 729.226C473.393 729.226 367.83 731.678 367.83 734.703C367.83 737.727 473.393 740.179 603.611 740.179Z" fill="#3F3D56"/>
<path id="Vector_18" d="M734.262 52.8005H649.669V157.901H734.262V52.8005Z" fill="#2F2E41"/>
<path id="Vector_19" d="M772.706 328.112C772.706 328.112 800.994 369.258 786.85 379.544C772.706 389.83 758.562 334.541 758.562 334.541L772.706 328.112Z" fill="#FFB8B8"/>
<path id="Vector_20" d="M777.849 333.255L755.99 342.256L722.56 241.963L723.125 237.399L735.418 139.099C735.418 139.099 744.071 138.315 748.456 144.126C749.846 146.043 750.675 148.309 750.847 150.671C752.133 163.529 745.704 234.248 745.704 234.248C745.704 234.248 746.99 241.963 748.276 244.535C749.561 247.106 752.133 245.821 750.847 249.678C749.561 253.535 746.99 253.535 748.276 254.821C749.291 255.994 750.155 257.29 750.847 258.679L777.849 333.255Z" fill="#D0CDE1"/>
<path id="Vector_21" d="M592.693 379.544L555.405 466.979C555.405 466.979 533.547 513.268 521.974 572.414L507.831 612.274L532.261 617.418L538.69 607.131L543.833 582.701C543.833 582.701 586.264 518.411 588.836 486.266L659.555 389.831L592.693 379.544Z" fill="#FFB8B8"/>
<path id="Vector_22" d="M690.414 388.545V483.694C690.414 483.694 682.7 541.555 685.271 568.557V619.989H704.558C704.558 619.989 704.558 598.131 708.416 590.416C712.273 582.701 734.132 502.981 727.703 474.694L748.276 379.544L690.414 388.545Z" fill="#FFB8B8"/>
<path id="Vector_23" d="M691.7 99.239C710.874 99.239 726.417 83.6958 726.417 64.5223C726.417 45.3489 710.874 29.8057 691.7 29.8057C672.527 29.8057 656.984 45.3489 656.984 64.5223C656.984 83.6958 672.527 99.239 691.7 99.239Z" fill="#FFB8B8"/>
<path id="Vector_24" d="M665.984 76.0946C665.984 76.0946 667.27 115.954 663.413 121.098C659.555 126.241 710.987 133.956 710.987 133.956C710.987 133.956 694.272 100.525 705.844 88.9526L665.984 76.0946Z" fill="#FFB8B8"/>
<path id="Vector_25" opacity="0.1" d="M731.56 211.104C731.56 211.104 730.274 222.676 734.132 227.819C737.989 232.963 729.631 237.463 729.631 237.463C726.996 237.026 728.474 237.45 723.125 237.399L735.418 139.099C735.418 139.099 738.105 136.502 742.49 142.313C742.567 151.841 736.703 176.387 736.703 176.387C745.704 199.532 731.56 211.104 731.56 211.104Z" fill="black"/>
<path id="Vector_26" d="M707.13 112.097C707.13 112.097 665.984 101.811 663.413 103.096C660.841 104.382 659.555 118.526 659.555 118.526C659.555 118.526 617.124 114.669 620.981 128.813C624.839 142.956 642.84 240.677 642.84 240.677C642.84 240.677 716.131 235.534 731.56 238.106C732.283 236.432 732.545 234.596 732.319 232.787C732.093 230.978 731.387 229.263 730.274 227.819C726.417 222.676 727.703 211.104 727.703 211.104C727.703 211.104 741.847 199.532 732.846 176.387C732.846 176.387 749.561 144.242 743.132 140.385C736.703 136.527 712.273 128.813 712.273 128.813C712.273 128.813 712.273 110.811 707.13 112.097Z" fill="#D0CDE1"/>
<path id="Vector_27" d="M644.126 236.82L622.267 317.826C622.267 317.826 565.692 374.401 586.265 383.401C606.837 392.402 686.557 407.832 700.701 397.545C714.845 387.259 705.844 384.687 723.845 387.259C741.847 389.83 773.992 387.259 773.992 376.972C773.992 366.686 728.989 232.963 728.989 232.963L644.126 236.82Z" fill="#2F2E41"/>
<path id="Vector_28" d="M528.403 604.56C528.403 604.56 511.688 596.845 507.831 601.988C503.973 607.131 466.685 670.136 487.258 673.993C507.831 677.85 528.403 667.564 530.975 655.992C533.547 644.419 548.976 623.847 548.976 623.847C548.976 623.847 565.641 604.478 543.165 585.874C543.165 585.874 538.69 604.56 528.403 604.56Z" fill="#2F2E41"/>
<path id="Vector_29" d="M677.556 617.418C677.556 617.418 694.272 600.702 707.13 617.418C707.13 617.418 726.417 677.85 696.844 676.565C667.27 675.279 671.127 663.706 671.127 663.706L677.556 617.418Z" fill="#2F2E41"/>
<path id="Vector_30" d="M583.693 324.255C583.693 324.255 560.548 376.972 577.264 378.258C593.979 379.544 597.837 329.398 597.837 329.398L583.693 324.255Z" fill="#FFB8B8"/>
<path id="Vector_31" d="M631.91 119.169C631.91 119.169 613.266 121.098 611.98 131.384C610.695 141.671 601.694 220.105 601.694 220.105L578.55 328.112L602.98 333.255C602.98 333.255 619.695 265.108 628.696 254.821L636.411 184.102L631.91 119.169Z" fill="#D0CDE1"/>
<path id="Vector_32" d="M697.481 9.26102C697.481 9.26102 664.156 7.19515 656.466 27.9179C648.775 48.6406 635.318 59.52 635.318 59.52C635.318 59.52 614.118 74.2561 624.718 100.562C624.718 100.562 591.739 122.724 613.528 142.411C613.528 142.411 612.247 162.097 625.064 175.567C625.064 175.567 635.318 180.748 631.472 183.856C627.627 186.965 657.107 184.892 654.543 156.917C651.98 128.941 669.283 109.235 669.283 109.235C669.283 109.235 652.621 72.9632 660.311 60.5295C664.98 52.9805 666.985 47.3511 670.861 44.093C673.02 42.3219 675.021 40.3682 676.845 38.2535C678.568 36.0742 680.91 34.4657 683.563 33.6385C686.215 32.8112 689.056 32.8036 691.713 33.6166C703.248 36.725 705.812 46.0502 705.812 46.0502C705.812 46.0502 714.143 68.3271 728.242 78.6885C742.341 89.0498 717.347 107.182 717.347 107.182C717.347 107.182 721.692 128.53 732.977 141.169C744.263 153.808 729.725 164.825 728.883 166.242C726.96 169.475 719.282 189.892 750.998 189.983C750.998 189.983 758.362 174.531 768.616 165.206C778.869 155.881 771.179 128.941 771.179 128.941C771.179 128.941 786.56 119.616 769.897 96.8208C769.897 96.8208 775.024 76.0981 760.925 62.6284C760.925 62.6284 741.059 2.00808 697.481 9.26102Z" fill="#2F2E41"/>
<path id="Vector_33" d="M659.67 62.9764C661.44 62.9764 662.874 60.681 662.874 57.8496C662.874 55.0181 661.44 52.7227 659.67 52.7227C657.9 52.7227 656.466 55.0181 656.466 57.8496C656.466 60.681 657.9 62.9764 659.67 62.9764Z" fill="#FFB8B8"/>
<g id="chat2">
<path id="Vector_34" d="M489.81 0V354.18C473.624 318.887 449.425 287.858 419.14 263.56C418.53 263.06 417.91 262.57 417.29 262.09C411.13 257.23 404.74 252.667 398.12 248.4C397.69 248.13 397.26 247.85 396.83 247.59C357.005 222.24 310.759 208.811 263.55 208.89H0V0H489.81Z" fill="#3F3D56"/>
<path id="Vector_35" opacity="0.1" d="M61.1754 81.8414H20.8132V122.204H61.1754V81.8414Z" fill="black"/>
<path id="Vector_36" d="M469.454 61.6603H138.019V71.7508H469.454V61.6603Z" fill="#F2F2F2"/>
<path id="Vector_37" d="M469.454 87.2747H138.019V97.3653H469.454V87.2747Z" fill="#F2F2F2"/>
<path id="Vector_38" d="M469.454 112.889H138.019V122.98H469.454V112.889Z" fill="#F2F2F2"/>
<path id="Vector_39" d="M82.1327 122.98H20.0371V60.8841H82.1327V122.98ZM21.5895 121.427H80.5803V62.4365H21.5895V121.427Z" fill="#F2F2F2"/>
<path id="Vector_40" d="M50.9719 105.711L31.6219 83.143L34.6589 80.54L50.6479 99.189L93.1699 38.305L96.4499 40.595L50.9719 105.711Z" fill="#6C63FF"/>
</g>
<g id="chat1">
<path id="Vector_41" d="M377.81 260.202V463.978C368.497 443.672 354.575 425.82 337.15 411.84C336.799 411.552 336.443 411.271 336.086 410.994C332.542 408.198 328.865 405.573 325.057 403.118C324.809 402.963 324.562 402.801 324.314 402.652C301.401 388.067 274.794 380.341 247.632 380.386H96V260.202H377.81Z" fill="#D0CDE1"/>
<path id="Vector_42" opacity="0.1" d="M131.197 307.289H107.975V330.511H131.197V307.289Z" fill="black"/>
<path id="Vector_43" d="M366.098 295.678H175.408V301.484H366.098V295.678Z" fill="#F2F2F2"/>
<path id="Vector_44" d="M366.098 310.415H175.408V316.221H366.098V310.415Z" fill="#F2F2F2"/>
<path id="Vector_45" d="M366.098 325.152H175.408V330.958H366.098V325.152Z" fill="#F2F2F2"/>
<path id="Vector_46" d="M143.255 330.958H107.528V295.231H143.255V330.958ZM108.421 330.065H142.361V296.125H108.421V330.065Z" fill="#F2F2F2"/>
<path id="Vector_47" d="M125.326 321.023L114.194 308.038L115.941 306.54L125.14 317.27L149.605 282.241L151.492 283.558L125.326 321.023Z" fill="#6C63FF"/>
</g>
<g id="leafs">
<path id="Vector_48" d="M834.81 491.45C847.513 491.45 857.81 481.153 857.81 468.45C857.81 455.747 847.513 445.45 834.81 445.45C822.107 445.45 811.81 455.747 811.81 468.45C811.81 481.153 822.107 491.45 834.81 491.45Z" fill="#6C63FF"/>
<path id="Vector_49" d="M489.81 383.45C507.483 383.45 521.81 369.123 521.81 351.45C521.81 333.777 507.483 319.45 489.81 319.45C472.137 319.45 457.81 333.777 457.81 351.45C457.81 369.123 472.137 383.45 489.81 383.45Z" fill="#6C63FF"/>
<path id="Vector_50" d="M377.81 489.45C390.513 489.45 400.81 479.153 400.81 466.45C400.81 453.747 390.513 443.45 377.81 443.45C365.107 443.45 354.81 453.747 354.81 466.45C354.81 479.153 365.107 489.45 377.81 489.45Z" fill="#6C63FF"/>
</g>
</g>
</svg>
