<svg width="1056" height="430" viewBox="0 0 1056 430" fill="none" xmlns="http://www.w3.org/2000/svg">
<rect width="1056" height="430" fill="white"/>
<g id="Frame 1">
<g id="floor">
<path id="Vector" d="M527.643 429.231C818.974 429.231 1055.14 413.596 1055.14 394.309C1055.14 375.023 818.974 359.388 527.643 359.388C236.313 359.388 0.143433 375.023 0.143433 394.309C0.143433 413.596 236.313 429.231 527.643 429.231Z" fill="#F2F2F2"/>
</g>
<g id="four1">
<path id="Vector_2" d="M318.114 266.264H282.58V161.624C282.58 158.872 282.038 156.147 280.984 153.605C279.931 151.062 278.388 148.752 276.442 146.806C274.496 144.86 272.186 143.317 269.643 142.263C267.101 141.21 264.376 140.668 261.624 140.668H253.297C247.74 140.668 242.409 142.876 238.479 146.806C234.549 150.736 232.342 156.066 232.342 161.624V266.264H132.111C130.05 266.264 128.023 265.731 126.227 264.716C124.432 263.702 122.929 262.241 121.865 260.475C120.801 258.709 120.211 256.698 120.153 254.637C120.095 252.576 120.571 250.535 121.534 248.712L227.616 47.9312C228.939 45.428 229.74 42.6827 229.973 39.8611C230.205 37.0395 229.863 34.2001 228.968 31.5143C228.073 28.8285 226.642 26.3519 224.763 24.2341C222.884 22.1163 220.596 20.4012 218.036 19.1923L211.774 16.2351C206.911 13.9389 201.352 13.5998 196.246 15.2881C191.141 16.9763 186.879 20.5627 184.344 25.3051L54.9628 267.338C52.7596 271.459 51.6069 276.06 51.6069 280.734V280.734C51.6069 288.27 54.6007 295.498 59.9297 300.827C65.2587 306.156 72.4864 309.15 80.0228 309.15H232.342V375.317C232.342 378.616 232.991 381.882 234.254 384.93C235.516 387.977 237.366 390.746 239.699 393.079C242.031 395.411 244.8 397.262 247.848 398.524C250.895 399.786 254.162 400.436 257.461 400.436H257.461C264.123 400.436 270.512 397.789 275.222 393.079C279.933 388.368 282.58 381.979 282.58 375.317V309.15H318.114C320.93 309.15 323.718 308.595 326.32 307.517C328.921 306.44 331.285 304.86 333.276 302.869C335.268 300.878 336.847 298.514 337.925 295.913C339.002 293.311 339.557 290.523 339.557 287.707V287.707C339.557 284.891 339.002 282.102 337.925 279.501C336.847 276.899 335.268 274.535 333.276 272.544C331.285 270.553 328.921 268.973 326.32 267.896C323.718 266.818 320.93 266.264 318.114 266.264V266.264Z" stroke="#3F3D56" stroke-miterlimit="10"/>
<path id="Vector_3" d="M308.311 278.517H272.777V173.877C272.777 168.32 270.569 162.989 266.639 159.059C262.709 155.129 257.379 152.922 251.821 152.922H243.495C240.743 152.922 238.018 153.464 235.475 154.517C232.933 155.57 230.623 157.113 228.677 159.059C226.731 161.005 225.187 163.315 224.134 165.858C223.081 168.4 222.539 171.125 222.539 173.877V278.517H122.309C120.247 278.517 118.22 277.984 116.425 276.97C114.629 275.955 113.127 274.494 112.062 272.728C110.998 270.962 110.408 268.951 110.35 266.89C110.292 264.829 110.768 262.788 111.731 260.965L217.814 60.1844C219.136 57.6812 219.938 54.9359 220.17 52.1143C220.402 49.2927 220.061 46.4534 219.165 43.7675C218.27 41.0817 216.84 38.6051 214.961 36.4873C213.082 34.3696 210.793 32.6544 208.233 31.4455L201.971 28.4883C197.108 26.1921 191.549 25.853 186.444 27.5413C181.338 29.2296 177.077 32.8159 174.542 37.5584L45.1602 279.591C42.957 283.712 41.8043 288.314 41.8043 292.987V292.987C41.8043 296.719 42.5393 300.414 43.9673 303.861C45.3954 307.309 47.4885 310.441 50.1271 313.08C52.7658 315.719 55.8983 317.812 59.3459 319.24C62.7935 320.668 66.4885 321.403 70.2202 321.403H222.539V387.57C222.539 390.869 223.189 394.135 224.451 397.183C225.713 400.23 227.564 402.999 229.896 405.332C232.229 407.664 234.998 409.515 238.045 410.777C241.093 412.039 244.359 412.689 247.658 412.689H247.658C250.957 412.689 254.223 412.039 257.271 410.777C260.318 409.515 263.087 407.664 265.42 405.332C267.752 402.999 269.603 400.23 270.865 397.183C272.127 394.135 272.777 390.869 272.777 387.57V321.403H308.311C313.998 321.403 319.452 319.144 323.474 315.122C327.495 311.101 329.754 305.647 329.754 299.96V299.96C329.754 294.273 327.495 288.819 323.474 284.797C319.453 280.776 313.998 278.517 308.311 278.517V278.517Z" fill="#6C63FF"/>
</g>
<g id="four2">
<path id="Vector_4" d="M984.688 266.264H949.153V161.624C949.153 156.066 946.945 150.736 943.016 146.806C939.086 142.876 933.755 140.668 928.197 140.668H919.871C917.119 140.668 914.394 141.21 911.852 142.263C909.309 143.317 906.999 144.86 905.053 146.806C903.107 148.752 901.564 151.062 900.51 153.605C899.457 156.147 898.915 158.872 898.915 161.624V266.264H798.685C796.623 266.264 794.596 265.731 792.801 264.716C791.006 263.702 789.503 262.241 788.439 260.475C787.374 258.709 786.785 256.698 786.727 254.637C786.669 252.576 787.144 250.535 788.108 248.712L894.19 47.9312C895.512 45.428 896.314 42.6827 896.546 39.8611C896.779 37.0395 896.437 34.2001 895.542 31.5143C894.646 28.8285 893.216 26.3519 891.337 24.2341C889.458 22.1163 887.17 20.4012 884.61 19.1923L878.347 16.2351C873.485 13.9389 867.925 13.5998 862.82 15.2881C857.714 16.9763 853.453 20.5627 850.918 25.3051L721.536 267.338C719.333 271.459 718.181 276.06 718.181 280.734C718.181 288.27 721.174 295.498 726.503 300.827C731.832 306.156 739.06 309.15 746.596 309.15H898.915V375.317C898.915 381.979 901.562 388.368 906.272 393.079C910.983 397.789 917.372 400.436 924.034 400.436V400.436C930.696 400.436 937.085 397.789 941.796 393.079C946.507 388.368 949.153 381.979 949.153 375.317V309.15H984.688C987.504 309.15 990.292 308.595 992.893 307.517C995.495 306.44 997.859 304.86 999.85 302.869C1001.84 300.878 1003.42 298.514 1004.5 295.913C1005.58 293.311 1006.13 290.523 1006.13 287.707V287.707C1006.13 282.02 1003.87 276.565 999.85 272.544C995.829 268.523 990.375 266.264 984.688 266.264V266.264Z" stroke="#3F3D56" stroke-miterlimit="10"/>
<path id="Vector_5" d="M966.308 278.517H930.774V173.877C930.774 168.32 928.566 162.989 924.636 159.059C920.706 155.129 915.376 152.922 909.818 152.922H901.491C898.739 152.922 896.014 153.464 893.472 154.517C890.929 155.57 888.619 157.113 886.673 159.059C884.727 161.005 883.184 163.315 882.131 165.858C881.077 168.4 880.535 171.125 880.535 173.877V278.517H780.305C778.243 278.517 776.216 277.984 774.421 276.97C772.626 275.955 771.123 274.494 770.059 272.728C768.995 270.962 768.405 268.951 768.347 266.89C768.289 264.829 768.764 262.788 769.728 260.965L875.81 60.1844C877.133 57.6812 877.934 54.9359 878.167 52.1144C878.399 49.2928 878.057 46.4534 877.162 43.7675C876.266 41.0817 874.836 38.6051 872.957 36.4873C871.078 34.3695 868.79 32.6544 866.23 31.4455L859.967 28.4883C855.105 26.1921 849.546 25.853 844.44 27.5413C839.334 29.2296 835.073 32.8159 832.538 37.5584L703.157 279.591C700.953 283.712 699.801 288.314 699.801 292.987V292.987C699.801 300.523 702.795 307.751 708.124 313.08C713.453 318.409 720.68 321.403 728.217 321.403H880.535V387.57C880.535 394.232 883.182 400.621 887.893 405.332C892.603 410.043 898.992 412.689 905.654 412.689V412.689C912.316 412.689 918.706 410.043 923.416 405.332C928.127 400.621 930.773 394.232 930.773 387.57V321.403H966.308C971.995 321.403 977.449 319.144 981.47 315.122C985.492 311.101 987.751 305.647 987.751 299.96V299.96C987.751 294.273 985.492 288.819 981.47 284.797C977.449 280.776 971.995 278.517 966.308 278.517Z" fill="#6C63FF"/>
</g>
<g id="zero">
<path id="Vector_6" d="M527.031 0.981873C441.087 0.981873 379.38 56.1212 379.38 184.78C379.38 330.593 441.087 369.19 527.031 369.19C612.975 369.19 678.358 326.917 678.358 184.78C678.358 32.8402 612.975 0.981873 527.031 0.981873ZM527.596 320.79C468.069 320.79 436.97 285.867 436.97 184.874C436.97 95.7621 469.342 48.7693 528.869 48.7693C588.396 48.7693 620.768 79.6371 620.768 184.874C620.768 283.321 587.123 320.79 527.596 320.79V320.79Z" stroke="#3F3D56" stroke-miterlimit="10"/>
<path id="Vector_7" d="M507.426 12.0097C421.482 12.0097 359.775 67.1491 359.775 195.808C359.775 341.621 421.482 380.218 507.426 380.218C593.37 380.218 658.753 337.945 658.753 195.808C658.753 43.868 593.37 12.0097 507.426 12.0097ZM507.991 331.818C448.464 331.818 417.365 296.895 417.365 195.902C417.365 106.79 449.737 59.7972 509.264 59.7972C568.791 59.7972 601.163 90.6649 601.163 195.902C601.163 294.349 567.517 331.818 507.991 331.818Z" fill="#2F2E41"/>
<path id="Vector_8" d="M563.242 29.1888C562.465 32.3822 559.114 34.9397 555.403 36.7267C547.602 40.4835 537.978 41.6045 528.644 41.9808C526.262 42.1255 523.873 42.0814 521.499 41.8488C516.898 41.4038 512.582 39.4197 509.249 36.2174C509.011 36.0623 508.816 35.8495 508.683 35.5987C508.549 35.3479 508.481 35.0674 508.486 34.7834C508.49 34.4994 508.566 34.2211 508.707 33.9746C508.849 33.728 509.05 33.5212 509.292 33.3735C514.262 27.9147 522.555 24.5675 530.909 22.1574C537.243 20.33 548.29 15.5966 555.199 16.2354C561.89 16.8541 564.223 25.1566 563.242 29.1888Z" fill="#3F3D56"/>
<path id="Vector_9" opacity="0.1" d="M563.242 29.1888C562.465 32.3822 559.114 34.9397 555.403 36.7267C547.602 40.4835 537.978 41.6045 528.644 41.9808C526.262 42.1255 523.873 42.0814 521.499 41.8488C516.898 41.4038 512.582 39.4197 509.249 36.2174C509.011 36.0623 508.816 35.8495 508.683 35.5987C508.549 35.3479 508.481 35.0674 508.486 34.7834C508.49 34.4994 508.566 34.2211 508.707 33.9746C508.849 33.728 509.05 33.5212 509.292 33.3735C514.262 27.9147 522.555 24.5675 530.909 22.1574C537.243 20.33 548.29 15.5966 555.199 16.2354C561.89 16.8541 564.223 25.1566 563.242 29.1888Z" fill="black"/>
<path id="Vector_10" d="M467.946 186.115C477.335 186.115 484.946 176.266 484.946 164.115C484.946 151.965 477.335 142.115 467.946 142.115C458.557 142.115 450.946 151.965 450.946 164.115C450.946 176.266 458.557 186.115 467.946 186.115Z" fill="#2F2E41"/>
<path id="Vector_11" d="M560.446 186.615C569.835 186.615 577.446 176.766 577.446 164.615C577.446 152.465 569.835 142.615 560.446 142.615C551.057 142.615 543.446 152.465 543.446 164.615C543.446 176.766 551.057 186.615 560.446 186.615Z" fill="#2F2E41"/>
<path id="Vector_12" d="M547.446 229.615C547.446 239.555 533.566 247.615 516.446 247.615C499.326 247.615 485.446 239.555 485.446 229.615C485.446 221.005 495.856 213.805 509.766 212.045C511.981 211.753 514.212 211.61 516.446 211.615C520.189 211.603 523.922 212.006 527.576 212.816C539.196 215.406 547.446 221.955 547.446 229.615Z" fill="#2F2E41"/>
<path id="Vector_13" d="M471.946 181.115C481.335 181.115 488.946 171.266 488.946 159.115C488.946 146.965 481.335 137.115 471.946 137.115C462.557 137.115 454.946 146.965 454.946 159.115C454.946 171.266 462.557 181.115 471.946 181.115Z" stroke="#3F3D56" stroke-miterlimit="10"/>
<path id="Vector_14" d="M564.446 181.615C573.835 181.615 581.446 171.766 581.446 159.615C581.446 147.465 573.835 137.615 564.446 137.615C555.057 137.615 547.446 147.465 547.446 159.615C547.446 171.766 555.057 181.615 564.446 181.615Z" stroke="#3F3D56" stroke-miterlimit="10"/>
<path id="Vector_15" d="M520.446 242.615C537.567 242.615 551.446 234.557 551.446 224.615C551.446 214.674 537.567 206.615 520.446 206.615C503.325 206.615 489.446 214.674 489.446 224.615C489.446 234.557 503.325 242.615 520.446 242.615Z" stroke="#3F3D56" stroke-miterlimit="10"/>
<path id="Vector_16" d="M471.946 158.115C474.707 158.115 476.946 155.877 476.946 153.115C476.946 150.354 474.707 148.115 471.946 148.115C469.185 148.115 466.946 150.354 466.946 153.115C466.946 155.877 469.185 158.115 471.946 158.115Z" fill="white"/>
<path id="Vector_17" d="M564.946 158.115C567.707 158.115 569.946 155.877 569.946 153.115C569.946 150.354 567.707 148.115 564.946 148.115C562.185 148.115 559.946 150.354 559.946 153.115C559.946 155.877 562.185 158.115 564.946 158.115Z" fill="white"/>
<path id="Vector_18" opacity="0.3" d="M569.946 205.115C572.707 205.115 574.946 202.877 574.946 200.115C574.946 197.354 572.707 195.115 569.946 195.115C567.185 195.115 564.946 197.354 564.946 200.115C564.946 202.877 567.185 205.115 569.946 205.115Z" fill="#6C63FF"/>
<path id="Vector_19" opacity="0.3" d="M447.946 205.115C450.707 205.115 452.946 202.877 452.946 200.115C452.946 197.354 450.707 195.115 447.946 195.115C445.185 195.115 442.946 197.354 442.946 200.115C442.946 202.877 445.185 205.115 447.946 205.115Z" fill="#6C63FF"/>
</g>
</g>
</svg>
