<svg width="41" height="41" viewBox="0 0 41 41" fill="none" xmlns="http://www.w3.org/2000/svg">
<path d="M20.5364 0.640627C25.8431 0.650156 30.6613 2.74132 34.2185 6.14079L37.0785 3.2808C38.2893 2.0701 40.3594 2.92758 40.3594 4.63981V15.375C40.3594 16.4364 39.4989 17.2969 38.4375 17.2969H27.7023C25.9901 17.2969 25.1326 15.2268 26.3433 14.016L29.6866 10.6727C27.215 8.35856 24.017 7.07667 20.6193 7.04736C13.2203 6.98345 6.98337 12.9713 7.04736 20.616C7.10805 27.8679 12.9874 33.9531 20.5 33.9531C23.7934 33.9531 26.906 32.7777 29.359 30.6254C29.7388 30.2922 30.3124 30.3125 30.6697 30.6697L33.8457 33.8457C34.2359 34.2359 34.2166 34.8719 33.8071 35.2417C30.2857 38.4225 25.6191 40.3594 20.5 40.3594C9.53202 40.3594 0.640705 31.4681 0.640625 20.5002C0.640545 9.54475 9.58103 0.621008 20.5364 0.640627Z" fill="white"/>
</svg>
