<svg width="41" height="41" fill="none" xmlns="http://www.w3.org/2000/svg"><path d="M20.536.64c5.307.01 10.125 2.101 13.682 5.5l2.86-2.86c1.211-1.21 3.281-.352 3.281 1.36v10.735c0 1.061-.86 1.922-1.922 1.922H27.703c-1.712 0-2.57-2.07-1.359-3.281l3.344-3.343a13.355 13.355 0 0 0-9.068-3.626C13.22 6.983 6.983 12.971 7.047 20.616c.061 7.252 5.94 13.337 13.453 13.337 3.293 0 6.406-1.175 8.859-3.328a.96.96 0 0 1 1.31.045l3.177 3.176a.963.963 0 0 1-.039 1.396A19.786 19.786 0 0 1 20.5 40.359C9.532 40.36.64 31.47.64 20.5.64 9.545 9.582.621 20.537.64Z" fill="#fff"/></svg>